<svg width="39" height="39" viewBox="0 0 39 39" fill="none" xmlns="http://www.w3.org/2000/svg">
<circle cx="19.5" cy="19.5" r="19" stroke="#E4E4E4"/>
<path d="M29.0312 21.1351H10.2188C10.0984 21.1351 10 21.2336 10 21.3539V22.5946C10 22.7149 10.0984 22.8134 10.2188 22.8134H29.0312C29.1524 22.8134 29.25 22.7149 29.25 22.5946V21.3539C29.25 21.2331 29.1524 21.1351 29.0312 21.1351ZM28.8125 22.3759H10.4375V21.5726H28.8125V22.3759Z" fill="#333333"/>
<path d="M11.1689 19.6778H28.0809C28.2021 19.6778 28.2997 19.5798 28.2997 19.4591V18.2188C28.2997 18.0984 28.2021 18 28.0809 18H11.1689C11.0478 18 10.9502 18.0984 10.9502 18.2188V19.4591C10.9502 19.5798 11.0473 19.6778 11.1689 19.6778ZM11.3877 18.4375H27.8622V19.2399H11.3877V18.4375Z" fill="#333333"/>
</svg>
