<svg width="39" height="39" viewBox="0 0 39 39" fill="none" xmlns="http://www.w3.org/2000/svg">
<circle cx="19.5" cy="19.5" r="19.5" fill="#69C9D1"/>
<circle cx="19.5" cy="19.5" r="19.5" stroke="#E4E4E4"/>
<path d="M29.0312 22.2711H10.2188C10.0984 22.2711 10 22.3696 10 22.4899V23.7306C10 23.8509 10.0984 23.9494 10.2188 23.9494H29.0312C29.1524 23.9494 29.25 23.8509 29.25 23.7306V22.4899C29.25 22.3691 29.1524 22.2711 29.0312 22.2711ZM28.8125 23.5119H10.4375V22.7086H28.8125V23.5119Z" fill="white"/>
<path d="M11.1689 20.8138H28.0809C28.2021 20.8138 28.2997 20.7158 28.2997 20.595V19.3547C28.2997 19.2344 28.2021 19.136 28.0809 19.136H11.1689C11.0478 19.136 10.9502 19.2344 10.9502 19.3547V20.595C10.9502 20.7158 11.0473 20.8138 11.1689 20.8138ZM11.3877 19.5735H27.8622V20.3759H11.3877V19.5735Z" fill="white"/>
<path d="M12.1191 17.6783H27.1315C27.2518 17.6783 27.3503 17.5798 27.3503 17.4595V16.2188C27.3503 16.0984 27.2518 16 27.1315 16H12.1191C11.998 16 11.9004 16.0984 11.9004 16.2188V17.4595C11.9004 17.5807 11.9975 17.6783 12.1191 17.6783ZM12.3379 16.4375H26.9128V17.2408H12.3379V16.4375Z" fill="white"/>
</svg>
