<svg width="39" height="39" viewBox="0 0 39 39" fill="none" xmlns="http://www.w3.org/2000/svg">
<circle cx="19.5" cy="19.5" r="19.5" fill="#69C9D1"/>
<circle cx="19.5" cy="19.5" r="19.5" stroke="#E4E4E4"/>
<path d="M29.0312 23.4062H10.2188C10.0984 23.4062 10 23.5047 10 23.625V24.8657C10 24.9861 10.0984 25.0845 10.2188 25.0845H29.0312C29.1524 25.0845 29.25 24.9861 29.25 24.8657V23.625C29.25 23.5043 29.1524 23.4062 29.0312 23.4062ZM28.8125 24.647H10.4375V23.8438H28.8125V24.647Z" fill="white"/>
<path d="M11.1689 21.9488H28.0809C28.2021 21.9488 28.2997 21.8508 28.2997 21.7301V20.4897C28.2997 20.3694 28.2021 20.271 28.0809 20.271H11.1689C11.0478 20.271 10.9502 20.3694 10.9502 20.4897V21.7301C10.9502 21.8508 11.0473 21.9488 11.1689 21.9488ZM11.3877 20.7085H27.8622V21.5109H11.3877V20.7085Z" fill="white"/>
<path d="M12.1191 18.8133H27.1315C27.2518 18.8133 27.3503 18.7148 27.3503 18.5945V17.3538C27.3503 17.2334 27.2518 17.135 27.1315 17.135H12.1191C11.998 17.135 11.9004 17.2334 11.9004 17.3538V18.5945C11.9004 18.7157 11.9975 18.8133 12.1191 18.8133ZM12.3379 17.5725H26.9128V18.3758H12.3379V17.5725Z" fill="white"/>
<path d="M13.0693 15.6783H26.1812C26.3015 15.6783 26.4 15.5798 26.4 15.4595V14.2188C26.4 14.0984 26.3015 14 26.1812 14H13.0693C12.9481 14 12.8506 14.0984 12.8506 14.2188V15.4595C12.8506 15.5798 12.9477 15.6783 13.0693 15.6783ZM13.2881 14.4375H25.9625V15.2408H13.2881V14.4375Z" fill="white"/>
</svg>
