<svg width="23" height="23" viewBox="0 0 23 23" fill="none" xmlns="http://www.w3.org/2000/svg">
<path d="M21.8021 17.4487H1.1979C1.06613 17.4487 0.958313 17.5565 0.958313 17.6883V19.0472C0.958313 19.179 1.06613 19.2868 1.1979 19.2868H21.8021C21.9348 19.2868 22.0416 19.179 22.0416 19.0472V17.6883C22.0416 17.5561 21.9348 17.4487 21.8021 17.4487ZM21.5625 18.8076H1.43748V17.9279H21.5625V18.8076Z" fill="#333333"/>
<path d="M2.23867 15.8527H20.7613C20.8941 15.8527 21.0009 15.7454 21.0009 15.6132V14.2547C21.0009 14.1229 20.8941 14.0151 20.7613 14.0151H2.23867C2.10594 14.0151 1.99908 14.1229 1.99908 14.2547V15.6132C1.99908 15.7454 2.10546 15.8527 2.23867 15.8527ZM2.47825 14.4943H20.5217V15.3731H2.47825V14.4943Z" fill="#333333"/>
<path d="M3.27944 12.4187H19.7216C19.8533 12.4187 19.9612 12.3108 19.9612 12.1791V10.8201C19.9612 10.6884 19.8533 10.5806 19.7216 10.5806H3.27944C3.14671 10.5806 3.03986 10.6884 3.03986 10.8201V12.1791C3.03986 12.3118 3.14623 12.4187 3.27944 12.4187ZM3.51902 11.0597H19.482V11.9395H3.51902V11.0597Z" fill="#333333"/>
<path d="M4.32015 8.98506H18.6808C18.8125 8.98506 18.9204 8.87724 18.9204 8.74547V7.38656C18.9204 7.25479 18.8125 7.14697 18.6808 7.14697H4.32015C4.18742 7.14697 4.08057 7.25479 4.08057 7.38656V8.74547C4.08057 8.87724 4.18694 8.98506 4.32015 8.98506ZM4.55973 7.62614H18.4412V8.50589H4.55973V7.62614Z" fill="#333333"/>
<path d="M5.35994 5.55049H17.64C17.7718 5.55049 17.8796 5.44268 17.8796 5.31091V3.95247C17.8796 3.8207 17.7718 3.71289 17.64 3.71289H5.35994C5.22817 3.71289 5.12036 3.8207 5.12036 3.95247V5.31091C5.12036 5.44268 5.22769 5.55049 5.35994 5.55049ZM5.59953 4.19158H17.4004V5.07037H5.59953V4.19158Z" fill="#333333"/>
</svg>
