<svg width="39" height="39" viewBox="0 0 39 39" fill="none" xmlns="http://www.w3.org/2000/svg">
<circle cx="19.5" cy="19.5" r="19.5" fill="#69C9D1"/>
<path d="M22.075 22.3C22.1006 22.348 22.1388 22.3882 22.1855 22.4162C22.2322 22.4442 22.2856 22.459 22.34 22.459H29.44C29.492 22.4591 29.5431 22.4457 29.5883 22.4202C29.6335 22.3947 29.6713 22.3578 29.6981 22.3132C29.7248 22.2687 29.7395 22.218 29.7407 22.166C29.7419 22.1141 29.7296 22.0627 29.705 22.017L23.485 10.358C23.4083 10.2138 23.2937 10.0933 23.1537 10.0092C23.0136 9.92521 22.8533 9.88087 22.69 9.88098H15.95C15.8981 9.88089 15.847 9.89429 15.8017 9.91989C15.7565 9.94548 15.7187 9.98238 15.692 10.027C15.6655 10.0714 15.651 10.1219 15.6497 10.1736C15.6485 10.2252 15.6607 10.2764 15.685 10.322L22.075 22.3ZM22.69 10.481C22.7445 10.4809 22.7979 10.4957 22.8446 10.5237C22.8913 10.5517 22.9294 10.5919 22.955 10.64L28.94 21.863H22.52L16.45 10.481H22.69ZM18.862 17.833L15.434 11.406C15.4088 11.3587 15.3714 11.319 15.3257 11.291C15.28 11.263 15.2276 11.2478 15.174 11.247C15.12 11.2455 15.0667 11.259 15.0199 11.286C14.9731 11.313 14.9347 11.3525 14.909 11.4L8.59003 22.457C8.5637 22.5026 8.54984 22.5543 8.54984 22.607C8.54984 22.6596 8.5637 22.7114 8.59003 22.757L12.14 28.97C12.1663 29.0159 12.2042 29.0541 12.2499 29.0806C12.2957 29.1072 12.3476 29.1212 12.4005 29.1212C12.4534 29.1212 12.5054 29.1072 12.5511 29.0806C12.5969 29.0541 12.6348 29.0159 12.661 28.97L18.861 18.125C18.8861 18.0804 18.8993 18.0302 18.8995 17.9791C18.8996 17.928 18.8867 17.8777 18.862 17.833ZM12.4 28.214L9.20003 22.606L15.16 12.168L18.26 17.968L12.4 28.214ZM30.412 23.348C30.386 23.3013 30.348 23.2624 30.302 23.2354C30.2559 23.2083 30.2035 23.194 30.15 23.194H16.976C16.9231 23.1939 16.871 23.2078 16.8252 23.2343C16.7793 23.2608 16.7413 23.299 16.715 23.345L13.672 28.67C13.6459 28.7156 13.6322 28.7674 13.6324 28.82C13.6326 28.8726 13.6466 28.9243 13.673 28.9697C13.6995 29.0152 13.7374 29.053 13.7831 29.0792C13.8287 29.1054 13.8804 29.1191 13.933 29.119H26.822C26.8728 29.1189 26.9228 29.1059 26.9672 29.0813C27.0117 29.0566 27.0491 29.0211 27.076 28.978L30.4 23.653C30.4291 23.6079 30.4456 23.5558 30.4477 23.5021C30.4498 23.4485 30.4375 23.3952 30.412 23.348ZM26.656 28.519H14.45L17.15 23.794H29.609L26.656 28.519Z" fill="white"/>
</svg>
