<svg width="39" height="39" viewBox="0 0 39 39" fill="none" xmlns="http://www.w3.org/2000/svg">
<path d="M9.57499 23.6797H17.9979V36.9913H20.0842V23.6797H28.5059C29.0821 23.6797 29.5497 23.2128 29.5497 22.6366V19.7189C29.5497 17.5934 27.9451 15.8379 25.8846 15.5918L24.9679 7.85366H25.892C26.4681 7.85366 26.9357 7.3867 26.9357 6.81053V4.61198C26.9357 2.7411 25.4127 1.21875 23.5406 1.21875H14.5391C12.6669 1.21875 11.1452 2.7411 11.1452 4.61198V6.81053C11.1452 7.3867 11.6128 7.85366 12.1877 7.85366H13.1118L12.1951 15.5918C10.1352 15.8379 8.53125 17.5934 8.53125 19.7189V22.6366C8.53125 23.2128 8.99882 23.6797 9.57499 23.6797ZM13.2315 4.61137C13.2315 3.891 13.8175 3.30501 14.5391 3.30501H23.5406C24.2622 3.30501 24.8494 3.891 24.8494 4.61137V5.76679H24.0045C23.9364 5.75268 23.864 5.74286 23.791 5.74286H14.2887C14.2157 5.74286 14.1439 5.75206 14.0752 5.76679H13.2315V4.61137ZM22.8669 7.85366L23.7799 15.5599H14.2991L15.2122 7.85366H22.8669ZM10.6175 19.7189C10.6175 18.5764 11.5477 17.6462 12.6896 17.6462H13.1173C13.1198 17.6462 13.1222 17.6468 13.1259 17.6468H24.9531C24.9568 17.6468 24.9593 17.6462 24.9617 17.6462H25.3894C26.5326 17.6462 27.4628 18.5764 27.4628 19.7189V21.5935H10.6175V19.7189Z" fill="#69C9D1"/>
<path d="M13 3H24.5L26 6.5L24.25 8.5V13.7188L27.5 18L28 22.2188L9.5 22L10 19L12.5 16.5L13.5 13L14 8L13 6.5V3Z" fill="#69C9D1"/>
</svg>
