<svg width="39" height="39" viewBox="0 0 39 39" fill="none" xmlns="http://www.w3.org/2000/svg">
<circle cx="19.5" cy="19.5" r="19.5" fill="#69C9D1"/>
<circle cx="19.5" cy="19.5" r="19.5" stroke="#E4E4E4"/>
<path d="M25.1662 10.7551V9.3838C25.1687 9.30496 25.1777 9.28343 25.1956 9.24228C25.2738 9.06116 25.5689 8.99868 25.6119 9.00002C25.6926 9.00694 25.7054 9.01367 25.7401 9.02617C25.8971 9.08327 25.9985 9.19229 26.0052 9.3838V10.7593C26.1587 10.7601 26.3122 10.761 26.4658 10.7618C28.2983 10.793 29.9514 12.2419 29.9867 13.9897C30.0164 18.2335 29.9871 22.4775 29.9871 26.7213C29.9751 28.4171 28.4109 29.9555 26.4655 29.9886C21.8364 30.0142 17.2068 29.9888 12.5774 29.9888C10.7239 29.9784 9.04874 28.5175 9.01329 26.7607C8.98351 22.5169 9.01308 18.2729 9.01308 14.0289C9.02483 12.3317 10.6063 10.7945 12.5342 10.7618C12.8996 10.7597 13.2649 10.7578 13.6305 10.756V9.3838C13.633 9.30958 13.6395 9.29727 13.6509 9.26497C13.7199 9.07039 14.0326 8.99868 14.0762 9.00002C14.157 9.00694 14.1697 9.01367 14.2044 9.02617C14.3614 9.08327 14.4628 9.19229 14.4695 9.3838V10.7524C18.0348 10.7376 21.6006 10.7385 25.1662 10.7551ZM25.1662 11.5247C21.6006 11.5115 18.035 11.5249 14.4695 11.5294V13.2292C14.4575 13.5767 14.343 13.5695 14.1284 13.607C13.8872 13.6491 13.6387 13.4678 13.6305 13.2292V11.5303C13.2802 11.5305 12.93 11.5307 12.5799 11.5307C11.1604 11.5388 9.8791 12.663 9.85225 13.9991C9.82226 18.2498 9.82226 22.5006 9.85225 26.7511C9.87805 28.0353 11.0792 29.1945 12.5447 29.2195C17.1814 29.2451 21.8185 29.2451 26.4553 29.2195C27.8582 29.1957 29.1208 28.0872 29.1477 26.7511C29.1777 22.5006 29.1777 18.2498 29.1477 13.9991C29.1219 12.7184 27.9295 11.5559 26.4553 11.5309C26.3053 11.5299 26.1551 11.5292 26.0052 11.5284V13.2292C25.9955 13.5046 25.9074 13.5057 25.7877 13.5663C25.5362 13.693 25.1761 13.519 25.1662 13.2292V11.5247ZM25.5855 23.8361H12.7884C12.3578 23.8147 12.1497 23.0987 12.7884 23.067H25.5855C25.6006 23.0678 25.6159 23.0685 25.631 23.0693C26.1151 23.142 26.0431 23.3783 25.9899 23.5544C25.941 23.7157 25.7698 23.8269 25.5855 23.8361ZM22.8559 20.7597H12.7884C12.3448 20.7403 12.208 20.016 12.7884 19.9907H22.8559C22.8691 19.9912 22.8823 19.9918 22.8958 19.9924C23.1709 20.0287 23.2097 20.1368 23.2523 20.2494C23.3383 20.4771 23.1386 20.7474 22.8559 20.7597ZM19.5001 17.6834H12.7884C12.3693 17.6682 12.1795 16.9362 12.7884 16.9143H19.5001C19.511 16.9147 19.5219 16.9151 19.5328 16.9155C19.7495 16.9389 19.7627 16.9887 19.8189 17.0491C20.0242 17.2694 19.8539 17.6707 19.5001 17.6834Z" fill="white"/>
</svg>
