<svg width="23" height="23" viewBox="0 0 23 23" fill="none" xmlns="http://www.w3.org/2000/svg">
<g clip-path="url(#clip0)">
<path d="M16.4202 2.53864V1.25711C16.4224 1.18344 16.4301 1.16332 16.4454 1.12486C16.5124 0.955598 16.7652 0.8972 16.8021 0.898457C16.8712 0.904926 16.8822 0.911215 16.9118 0.922895C17.0464 0.976262 17.1332 1.07814 17.139 1.25711V2.5426C17.2705 2.54332 17.402 2.54422 17.5336 2.54493C19.1035 2.57404 20.5198 3.92817 20.55 5.56153C20.5755 9.52759 20.5503 13.4938 20.5503 17.4599C20.5401 19.0447 19.2 20.4824 17.5334 20.5133C13.5675 20.5372 9.60125 20.5135 5.63519 20.5135C4.04729 20.5038 2.61213 19.1385 2.58176 17.4967C2.55624 13.5307 2.58158 9.56443 2.58158 5.59818C2.59164 4.01208 3.94649 2.57548 5.59817 2.54493C5.91119 2.54296 6.22421 2.54116 6.5374 2.53954V1.25711C6.53956 1.18775 6.54513 1.17625 6.55483 1.14607C6.61395 0.964223 6.88186 0.8972 6.91924 0.898457C6.98842 0.904926 6.99938 0.911215 7.02903 0.922895C7.16361 0.976262 7.2504 1.07814 7.25615 1.25711V2.53613C10.3107 2.52229 13.3655 2.52319 16.4202 2.53864ZM16.4202 3.25793C13.3655 3.24554 10.3108 3.25811 7.25615 3.26225V4.85086C7.24591 5.17556 7.1478 5.16891 6.96398 5.20395C6.75734 5.2433 6.54441 5.07386 6.5374 4.85086V3.26314C6.23732 3.26332 5.93724 3.2635 5.63735 3.2635C4.42122 3.27105 3.32351 4.32168 3.30051 5.57033C3.27482 9.54286 3.27482 13.5154 3.30051 17.4877C3.32261 18.6879 4.35168 19.7712 5.60716 19.7946C9.57951 19.8185 13.5522 19.8185 17.5246 19.7946C18.7265 19.7723 19.8082 18.7364 19.8312 17.4877C19.8569 13.5154 19.8569 9.54286 19.8312 5.57033C19.8091 4.37343 18.7876 3.28704 17.5246 3.26368C17.3961 3.26279 17.2674 3.26207 17.139 3.26135V4.85086C17.1307 5.10818 17.0552 5.10925 16.9526 5.16586C16.7372 5.28427 16.4287 5.12165 16.4202 4.85086V3.25793ZM16.7794 14.7635H5.81596C5.44706 14.7436 5.26881 14.0744 5.81596 14.0448H16.7794C16.7923 14.0455 16.8055 14.0462 16.8184 14.0469C17.2331 14.1148 17.1715 14.3357 17.1258 14.5003C17.084 14.651 16.9374 14.7549 16.7794 14.7635ZM14.441 11.8885H5.81596C5.43592 11.8704 5.31876 11.1935 5.81596 11.1698H14.441C14.4523 11.1703 14.4636 11.1708 14.4751 11.1714C14.7108 11.2053 14.7441 11.3063 14.7806 11.4116C14.8542 11.6244 14.6832 11.877 14.441 11.8885ZM11.566 9.0135H5.81596C5.45694 8.99931 5.29432 8.31524 5.81596 8.29475H11.566C11.5753 8.29511 11.5846 8.29547 11.594 8.29583C11.7796 8.31775 11.7909 8.36429 11.8391 8.42071C12.015 8.62664 11.8691 9.00165 11.566 9.0135Z" fill="#333333"/>
</g>
<defs>
<clipPath id="clip0">
<rect width="23" height="23" fill="white"/>
</clipPath>
</defs>
</svg>
