<svg width="39" height="39" viewBox="0 0 39 39" fill="none" xmlns="http://www.w3.org/2000/svg">
<circle cx="19.5" cy="19.5" r="19.5" fill="#69C9D1"/>
<path d="M28.3809 29.5001H10.7619C9.79021 29.5001 9 28.7099 9 27.7382V16.2858C9 15.3141 9.79021 14.5239 10.7619 14.5239H28.3809C29.3526 14.5239 30.1428 15.3141 30.1428 16.2858V27.7382C30.1428 28.7099 29.3526 29.5001 28.3809 29.5001ZM10.7619 15.4049C10.2761 15.4049 9.88095 15.8 9.88095 16.2858V27.7382C9.88095 28.2241 10.2761 28.6192 10.7619 28.6192H28.3809C28.8668 28.6192 29.2619 28.2241 29.2619 27.7382V16.2858C29.2619 15.8 28.8668 15.4049 28.3809 15.4049H10.7619Z" fill="white"/>
<path d="M23.0953 13.2024H22.2144V12.3214C22.2144 12.0783 22.0166 11.881 21.7739 11.881H17.3692C17.1265 11.881 16.9287 12.0783 16.9287 12.3214V13.2024H16.0477V12.3214C16.0477 11.5929 16.6406 11 17.3692 11H21.7739C22.5025 11 23.0953 11.5929 23.0953 12.3214V13.2024Z" fill="white"/>
<path d="M26.6194 18.9287H12.0837C11.8406 18.9287 11.6432 18.7318 11.6432 18.4882C11.6432 18.2446 11.8406 18.0477 12.0837 18.0477H26.6194C26.8626 18.0477 27.0599 18.2446 27.0599 18.4882C27.0599 18.7318 26.8626 18.9287 26.6194 18.9287Z" fill="white"/>
<path d="M26.6194 22.4526H12.0837C11.8406 22.4526 11.6432 22.2557 11.6432 22.0121C11.6432 21.7685 11.8406 21.5717 12.0837 21.5717H26.6194C26.8626 21.5717 27.0599 21.7685 27.0599 22.0121C27.0599 22.2557 26.8626 22.4526 26.6194 22.4526Z" fill="white"/>
<path d="M26.6194 25.976H12.0837C11.8406 25.976 11.6432 25.7792 11.6432 25.5356C11.6432 25.292 11.8406 25.0951 12.0837 25.0951H26.6194C26.8626 25.0951 27.0599 25.292 27.0599 25.5356C27.0599 25.7792 26.8626 25.976 26.6194 25.976Z" fill="white"/>
<path d="M16.9287 13.2023H16.0477V14.9642H16.9287V13.2023Z" fill="white"/>
<path d="M23.0959 13.2023H22.2149V14.9642H23.0959V13.2023Z" fill="white"/>
<path d="M22.6549 12.7617H16.4883V13.6427H22.6549V12.7617Z" fill="white"/>
</svg>
