<svg width="32" height="32" viewBox="0 0 32 32" fill="none" xmlns="http://www.w3.org/2000/svg">
<path d="M16 0C7.164 0 0 7.164 0 16C0 24.8373 7.164 32 16 32C24.836 32 32 24.8373 32 16C32 7.164 24.836 0 16 0ZM26.3387 12.748L14.8627 24.224C14.628 24.46 14.2467 24.46 14.0133 24.224L12.3173 22.5107C12.084 22.276 11.7013 21.892 11.4693 21.6547L7.52267 17.5053C7.40667 17.3893 7.34533 17.2253 7.34533 17.0693C7.34533 16.916 7.40667 16.7667 7.52267 16.6507L9.252 15.092C9.36933 14.972 9.52533 14.9133 9.68 14.9133C9.832 14.9147 9.984 14.9747 10.1 15.092L14.0147 19.0853C14.248 19.3227 14.6293 19.3227 14.864 19.0853L23.796 10.1773C24.0307 9.94133 24.4107 9.94133 24.644 10.1773L26.34 11.8907C26.5733 12.1253 26.5733 12.512 26.3387 12.748Z" fill="white"/>
</svg>
