<svg width="24" height="16" viewBox="0 0 24 16" fill="none" xmlns="http://www.w3.org/2000/svg">
<path d="M19.3693 6.37031C19.3693 6.30703 19.3799 6.24375 19.3799 6.18047C19.3799 2.78965 16.5955 0 13.2205 0C10.7895 0 8.6959 1.47129 7.71504 3.5332C7.28789 3.31699 6.81328 3.1957 6.30176 3.1957C4.74082 3.1957 3.44883 4.44551 3.1957 5.93789C1.33945 6.58125 0 8.26875 0 10.357C0 12.9832 2.11465 15.1875 4.725 15.1875H19.3008C21.6738 15.1875 23.625 13.1361 23.625 10.742C23.625 8.33731 21.7582 6.37559 19.3693 6.37031ZM19.2744 14.3227L19.1057 14.3438H4.76719C2.61035 14.3438 0.854297 12.5033 0.854297 10.3307C0.854297 8.64844 1.91953 7.25098 3.50156 6.70254L3.94453 6.54434L4.02363 6.08027C4.21348 4.94121 5.18906 4.00781 6.33867 4.00781C6.70254 4.00781 7.06113 4.09219 7.38809 4.26094L8.1 4.61953L8.44277 3.89707C9.31816 2.05664 11.1902 0.827929 13.21 0.827929C16.1262 0.827929 18.5309 3.15352 18.5309 6.08555C18.5309 6.78691 18.5203 7.15605 18.5203 7.15605L19.3219 7.16133C21.2572 7.1877 22.7812 8.76973 22.7812 10.7156C22.7812 12.6615 21.2098 14.3121 19.2744 14.3227Z" fill="#333333"/>
</svg>
