<svg width="39" height="39" viewBox="0 0 39 39" fill="none" xmlns="http://www.w3.org/2000/svg">
<circle cx="19.5" cy="19.5" r="19" stroke="#E4E4E4"/>
<path d="M19.501 29.292H19.5002C14.1016 29.292 9.70938 24.9 9.70898 19.5014C9.70898 14.1026 14.101 9.71057 19.4998 9.71057C24.8986 9.71057 29.2906 14.1028 29.2906 19.5014C29.2906 24.8998 24.899 29.292 19.501 29.292ZM19.4998 10.4916C14.5318 10.4916 10.4902 14.5332 10.4902 19.5012C10.4906 24.4692 14.5324 28.5108 19.5002 28.5108H19.501C24.4684 28.5108 28.5094 24.4692 28.5094 19.5012C28.5094 14.5332 24.4678 10.4916 19.4998 10.4916Z" fill="#333333"/>
<path d="M19.5934 25.0826C17.8455 25.0826 16.4235 23.7447 16.4235 22.1006C16.4235 21.8849 16.5985 21.7099 16.8141 21.7099C17.0297 21.7099 17.2047 21.8849 17.2047 22.1006C17.2047 23.314 18.2762 24.3013 19.5934 24.3013C20.9104 24.3013 21.9819 23.314 21.9819 22.1006C21.9819 20.8871 20.9106 19.8998 19.5934 19.8998C17.8455 19.8998 16.4235 18.5621 16.4235 16.9177C16.4235 15.2736 17.8455 13.9359 19.5934 13.9359C20.533 13.9359 21.418 14.3242 22.0219 15.0013C22.1655 15.1625 22.1514 15.4094 21.9905 15.5529C21.8295 15.6965 21.5823 15.6822 21.4391 15.5215C20.9832 15.0103 20.3106 14.7172 19.5936 14.7172C18.2764 14.7172 17.2049 15.7043 17.2049 16.9177C17.2049 18.1312 18.2764 19.1185 19.5936 19.1185C21.3412 19.1185 22.7633 20.4564 22.7633 22.1006C22.7633 23.7447 21.341 25.0826 19.5934 25.0826Z" fill="#333333"/>
<path d="M19.5063 26.5004C19.2907 26.5004 19.1157 26.3254 19.1157 26.1097V12.9086C19.1157 12.6929 19.2907 12.5179 19.5063 12.5179C19.7219 12.5179 19.8969 12.6929 19.8969 12.9086V26.1097C19.8969 26.3254 19.7221 26.5004 19.5063 26.5004Z" fill="#333333"/>
</svg>
