<svg width="116" height="116" viewBox="0 0 116 116" fill="none" xmlns="http://www.w3.org/2000/svg">
<g opacity="0.4">
<path d="M57.672 0C25.8197 0 0 25.8214 0 57.6737C0 89.5226 25.8197 115.344 57.672 115.344C89.5221 115.344 115.344 89.5226 115.344 57.6737C115.344 25.8214 89.5221 0 57.672 0ZM57.672 107.19C30.3241 107.19 8.15441 85.0177 8.15441 57.6733C8.15441 30.3254 30.3237 8.15696 57.672 8.15696C85.0182 8.15696 107.188 30.3254 107.188 57.6733C107.188 85.0182 85.0182 107.19 57.672 107.19Z" fill="#A3D179"/>
<path d="M102.283 57.6717C102.283 82.3112 82.3094 102.283 57.672 102.283C33.0325 102.283 13.0596 82.3108 13.0596 57.6717C13.0596 33.0326 33.0325 13.0605 57.672 13.0605C82.309 13.0601 102.283 33.0326 102.283 57.6717Z" fill="#A3D179"/>
<path d="M51.9998 83.851L28.4795 47.4756V47.0182L50.5159 56.9759L86.8632 31.4922L51.9998 83.851Z" fill="white"/>
</g>
</svg>
