<svg width="23" height="23" viewBox="0 0 23 23" fill="none" xmlns="http://www.w3.org/2000/svg">
<path d="M21.9219 10.4219H20.125C20.0269 9.35069 19.532 8.35484 18.7375 7.62974C17.943 6.90463 16.9061 6.50264 15.8305 6.50264C14.7548 6.50264 13.718 6.90463 12.9234 7.62974C12.1289 8.35484 11.634 9.35069 11.5359 10.4219H8.26562V9.70312H11.1406V3.23438H2.51562V9.70312H5.39062V10.4219H1.07812V12.5781H2.875V19.0469H3.95312V20.4844H6.10938V19.0469H10.7812V16.1719H17.25V20.4844H19.4062V16.1719H20.125V12.5781H21.9219V10.4219ZM15.8125 7.1875C16.7065 7.18302 17.5701 7.51193 18.2346 8.10999C18.8991 8.70806 19.3169 9.53234 19.4062 10.4219H12.2367C12.3258 9.53543 12.741 8.71368 13.4017 8.11604C14.0624 7.5184 14.9216 7.18749 15.8125 7.1875ZM7.90625 8.98438H5.75V7.54688H7.90625V8.98438ZM3.23438 8.98438V3.95312H10.4219V8.98438H8.625V6.82812H5.03125V8.98438H3.23438ZM6.10938 9.70312H7.54688V10.4219H6.10938V9.70312ZM5.39062 19.7656H4.67188V19.0469H5.39062V19.7656ZM10.0625 18.3281H3.59375V12.5781H10.0625V18.3281ZM18.6875 19.7656H17.9688V16.1719H18.6875V19.7656ZM19.4062 15.4531H10.7812V12.5781H19.4062V15.4531ZM21.2031 11.8594H1.79688V11.1406H21.2031V11.8594Z" fill="#333333"/>
<path d="M15.8125 6.10938C16.1679 6.10938 16.5153 6.00399 16.8108 5.80655C17.1063 5.6091 17.3366 5.32847 17.4726 5.00013C17.6086 4.6718 17.6442 4.31051 17.5749 3.96195C17.5055 3.61339 17.3344 3.29322 17.0831 3.04192C16.8318 2.79062 16.5116 2.61949 16.1631 2.55015C15.8145 2.48082 15.4532 2.5164 15.1249 2.6524C14.7965 2.78841 14.5159 3.01872 14.3185 3.31421C14.121 3.6097 14.0156 3.95711 14.0156 4.3125C14.0156 4.78906 14.2049 5.2461 14.5419 5.58308C14.8789 5.92006 15.3359 6.10938 15.8125 6.10938ZM15.8125 3.23438C16.0257 3.23438 16.2342 3.29761 16.4115 3.41607C16.5888 3.53454 16.727 3.70292 16.8086 3.89992C16.8902 4.09692 16.9115 4.3137 16.8699 4.52283C16.8283 4.73197 16.7256 4.92407 16.5749 5.07485C16.4241 5.22563 16.232 5.32831 16.0228 5.36991C15.8137 5.41151 15.5969 5.39016 15.3999 5.30856C15.2029 5.22696 15.0345 5.08877 14.9161 4.91147C14.7976 4.73418 14.7344 4.52573 14.7344 4.3125C14.7344 4.02656 14.848 3.75234 15.0502 3.55015C15.2523 3.34796 15.5266 3.23438 15.8125 3.23438Z" fill="#333333"/>
</svg>
