<svg width="116" height="116" viewBox="0 0 116 116" fill="none" xmlns="http://www.w3.org/2000/svg">
<g opacity="0.4">
<path d="M57.672 0C25.8197 0 0 25.8214 0 57.6737C0 89.5226 25.8197 115.344 57.672 115.344C89.5221 115.344 115.344 89.5226 115.344 57.6737C115.344 25.8214 89.5221 0 57.672 0ZM57.672 107.19C30.3241 107.19 8.15441 85.0177 8.15441 57.6733C8.15441 30.3254 30.3237 8.15696 57.672 8.15696C85.0182 8.15696 107.188 30.3254 107.188 57.6733C107.188 85.0182 85.0182 107.19 57.672 107.19Z" fill="#D17979"/>
<path d="M102.283 57.6722C102.283 82.3117 82.3094 102.283 57.672 102.283C33.0325 102.283 13.0596 82.3113 13.0596 57.6722C13.0596 33.0331 33.0325 13.061 57.672 13.061C82.309 13.0606 102.283 33.0331 102.283 57.6722Z" fill="#D17979"/>
</g>
<path fill-rule="evenodd" clip-rule="evenodd" d="M38.25 30L30 38.2501L49.25 57.5002L30 76.75L38.25 85.0001L57.5 65.7501L76.75 85.0001L85 76.75L65.75 57.5002L85 38.2501L76.75 30L57.5 49.2501L38.25 30Z" fill="white"/>
</svg>
