<svg width="39" height="39" viewBox="0 0 39 39" fill="none" xmlns="http://www.w3.org/2000/svg">
<circle cx="19.5" cy="19.5" r="19" stroke="#E4E4E4"/>
<path d="M25.2745 23.9368V22.4649C25.5354 22.524 25.7963 22.6422 26.0621 22.7997C26.1408 22.844 26.2147 22.8686 26.2934 22.8686C26.5297 22.8686 26.7217 22.6865 26.7217 22.4452C26.7217 22.2631 26.6134 22.145 26.4904 22.0761C26.1359 21.8545 25.7569 21.7069 25.304 21.6527V21.4853C25.304 21.3032 25.1563 21.1555 24.9742 21.1555C24.792 21.1555 24.6394 21.3032 24.6394 21.4853V21.6478C23.6844 21.7265 23.0297 22.2926 23.0297 23.1098C23.0297 23.9762 23.5515 24.3946 24.669 24.685V26.1914C24.2456 26.1126 23.8961 25.9403 23.5368 25.6794C23.4679 25.6253 23.3743 25.5957 23.2857 25.5957C23.0494 25.5957 22.8624 25.7779 22.8624 26.0191C22.8624 26.1815 22.9411 26.3046 23.0691 26.3883C23.5368 26.7181 24.0635 26.9248 24.6394 26.9839V27.4565C24.6394 27.6386 24.792 27.7863 24.9742 27.7863C25.1563 27.7863 25.304 27.6386 25.304 27.4565V26.9987C26.2787 26.9052 26.9334 26.3489 26.9334 25.5071C26.9383 24.6949 26.4411 24.2272 25.2745 23.9368ZM24.669 23.7744C24.0783 23.5824 23.9355 23.3855 23.9355 23.0606C23.9355 22.7258 24.1816 22.4649 24.669 22.4157V23.7744ZM25.2745 26.2308V24.8377C25.8652 25.0198 26.0325 25.2265 26.0325 25.5662C26.0325 25.9354 25.7667 26.1766 25.2745 26.2308Z" fill="#333333"/>
<path d="M12.2882 16.3708C12.1208 16.425 12.0371 16.553 12.0371 16.7056C12.0371 16.8877 12.1848 17.0354 12.3965 17.0354H15.7488C15.9802 17.0354 16.1623 16.8582 16.1623 16.6317C16.1623 16.4004 15.9802 16.2182 15.7488 16.2182H13.637V14.9088H15.1827C15.3993 14.9088 15.5814 14.7316 15.5814 14.5101C15.5814 14.2935 15.3993 14.1113 15.1827 14.1113H13.637V13.432C13.637 13.112 13.7305 12.8561 13.8881 12.6887C14.0357 12.5509 14.208 12.4721 14.4542 12.4721C14.8086 12.4721 15.035 12.6198 15.2713 12.8708C15.3304 12.9397 15.4387 13.0185 15.6061 13.0185C15.867 13.0185 16.0737 12.8216 16.0737 12.5607C16.0737 12.413 16.0146 12.3097 15.926 12.226C15.5913 11.8666 15.1384 11.6057 14.4345 11.6057C13.8831 11.6057 13.445 11.7731 13.1497 12.0783C12.8445 12.3835 12.6771 12.8511 12.6771 13.4123V14.1163H12.431C12.2094 14.1163 12.0322 14.2984 12.0322 14.515C12.0322 14.7365 12.2094 14.9137 12.431 14.9137H12.6771V16.2625L12.2882 16.3708Z" fill="#333333"/>
<path d="M24.9002 19.3784C24.1717 19.3784 23.4628 19.531 22.8032 19.8264C20.9769 20.6485 19.8004 22.4748 19.8004 24.4783C19.8004 24.5324 19.8004 24.5915 19.8053 24.6456C19.8496 25.9748 20.396 27.2153 21.351 28.1407C22.306 29.0711 23.5711 29.5781 24.9002 29.5781C27.711 29.5781 30.0001 27.2891 30.0001 24.4783C30.0001 21.6674 27.716 19.3784 24.9002 19.3784ZM24.9002 28.889C22.5029 28.889 20.5683 27.0134 20.4895 24.621C20.4895 24.5718 20.4895 24.5275 20.4895 24.4783C20.4895 22.7455 21.5085 21.1703 23.0887 20.4565C23.6597 20.2005 24.2701 20.0676 24.9002 20.0676C27.332 20.0676 29.3109 22.0465 29.3109 24.4783C29.3109 26.9101 27.332 28.889 24.9002 28.889Z" fill="#333333"/>
<path d="M14.0999 19.418C15.4339 19.418 16.6941 18.906 17.6491 17.9806C18.6041 17.0551 19.1505 15.8146 19.1948 14.4855C19.1948 14.4313 19.1997 14.3723 19.1997 14.3181C19.1997 12.3146 18.0183 10.4932 16.1969 9.66622C15.5373 9.36594 14.8284 9.21826 14.0999 9.21826C11.289 9.21826 9 11.5073 9 14.3181C9 17.1289 11.2841 19.418 14.0999 19.418ZM14.0999 9.90743C14.73 9.90743 15.3404 10.0403 15.9114 10.2963C17.4916 11.0101 18.5105 12.5903 18.5105 14.3181C18.5105 14.3673 18.5105 14.4116 18.5105 14.4609C18.4318 16.8533 16.4972 18.7288 14.0999 18.7288C11.6681 18.7288 9.68917 16.7499 9.68917 14.3181C9.68917 11.8863 11.6681 9.90743 14.0999 9.90743Z" fill="#333333"/>
<path d="M24.2603 10.3012V9.34623C24.2603 9.21331 24.1864 9.09517 24.0683 9.0361C23.9501 8.97703 23.8123 8.9918 23.7089 9.07056L19.9382 11.9454C19.8545 12.0094 19.8004 12.1127 19.8004 12.221C19.8004 12.3293 19.8496 12.4278 19.9382 12.4967L23.7089 15.3715C23.8123 15.4503 23.9551 15.4651 24.0683 15.406C24.1864 15.3469 24.2603 15.2288 24.2603 15.0959V14.2886C25.9389 14.6331 27.4108 15.721 28.2328 17.2421C28.5626 17.8525 28.7792 18.5073 28.8728 19.1964C28.8974 19.3687 29.0401 19.4918 29.2124 19.4918H29.6555C29.8475 19.4918 30.0001 19.3392 30.0001 19.1472V16.7843C30.0001 15.1599 29.3995 13.5994 28.3067 12.3983C27.2483 11.2267 25.8158 10.4883 24.2603 10.3012ZM29.3109 18.0199C29.1878 17.6359 29.0303 17.2668 28.8383 16.9123C27.8686 15.1156 26.0915 13.8603 24.083 13.5551C24.0437 13.5502 24.0043 13.5452 23.96 13.5354C23.9452 13.5354 23.9304 13.5305 23.9108 13.5305C23.8271 13.5305 23.7483 13.56 23.6843 13.6142C23.6105 13.6781 23.5662 13.7766 23.5662 13.8751V14.3919L20.7061 12.2161L23.5662 10.0403V10.6113C23.5662 10.7935 23.704 10.9412 23.8861 10.9559C23.9501 10.9609 24.0141 10.9658 24.0732 10.9707C27.0563 11.2808 29.306 13.7766 29.306 16.7794V18.0199H29.3109Z" fill="#333333"/>
<path d="M19.0619 26.3046L15.2911 23.4298C15.1878 23.3511 15.045 23.3363 14.9318 23.3954C14.8136 23.4544 14.7398 23.5726 14.7398 23.7055V24.5128C13.0612 24.1682 11.5893 23.0803 10.7672 21.5592C10.4374 20.9488 10.2208 20.2941 10.1273 19.6049C10.1027 19.4326 9.95991 19.3096 9.78762 19.3096H9.34458C9.1526 19.3096 9 19.4622 9 19.6542V22.017C9 23.6415 9.60056 25.202 10.6934 26.4031C11.7518 27.5698 13.1892 28.3131 14.7398 28.5001V29.4551C14.7398 29.588 14.8136 29.7062 14.9318 29.7653C14.981 29.7899 15.0302 29.7997 15.0844 29.7997C15.1582 29.7997 15.2321 29.7751 15.2911 29.7308L19.0619 26.856C19.1456 26.792 19.1997 26.6886 19.1997 26.5803C19.1997 26.472 19.1505 26.3686 19.0619 26.3046ZM15.429 28.7561V28.1851C15.429 28.0029 15.2911 27.8553 15.109 27.8405C15.045 27.8356 14.981 27.8307 14.9219 27.8257C11.9388 27.5156 9.68917 25.0198 9.68917 22.017V20.7765C9.81224 21.1605 9.96976 21.5297 10.1617 21.8841C11.1315 23.6809 12.9086 24.9361 14.917 25.2414C14.9564 25.2463 14.9958 25.2512 15.0401 25.261C15.1385 25.2758 15.237 25.2463 15.3157 25.1774C15.3896 25.1134 15.4339 25.0149 15.4339 24.9165V24.3996L18.2939 26.5754L15.429 28.7561Z" fill="#333333"/>
</svg>
