<svg width="21" height="21" viewBox="0 0 21 21" fill="none" xmlns="http://www.w3.org/2000/svg">
<g clip-path="url(#clip0)">
<path d="M18.6856 3.62688L15.1856 0.126882C15.1447 0.0863342 15.0963 0.0542544 15.043 0.0324824C14.9897 0.0107104 14.9326 -0.000325578 14.875 7.3125e-06H3.5C3.1519 7.3125e-06 2.81806 0.138288 2.57192 0.38443C2.32578 0.630571 2.1875 0.964411 2.1875 1.31251V19.6875C2.1875 20.0356 2.32578 20.3694 2.57192 20.6156C2.81806 20.8617 3.1519 21 3.5 21H17.5C17.8481 21 18.1819 20.8617 18.4281 20.6156C18.6742 20.3694 18.8125 20.0356 18.8125 19.6875V3.93751C18.8128 3.87993 18.8018 3.82285 18.78 3.76955C18.7583 3.71624 18.7262 3.66776 18.6856 3.62688ZM15.3125 1.49188L17.3206 3.50001H15.75C15.634 3.50001 15.5227 3.45391 15.4406 3.37187C15.3586 3.28982 15.3125 3.17854 15.3125 3.06251V1.49188ZM17.9375 19.6875C17.9375 19.8035 17.8914 19.9148 17.8094 19.9969C17.7273 20.0789 17.616 20.125 17.5 20.125H3.5C3.38397 20.125 3.27269 20.0789 3.19064 19.9969C3.10859 19.9148 3.0625 19.8035 3.0625 19.6875V1.31251C3.0625 1.19648 3.10859 1.0852 3.19064 1.00315C3.27269 0.921101 3.38397 0.875007 3.5 0.875007H14.4375V3.06251C14.4375 3.4106 14.5758 3.74444 14.8219 3.99059C15.0681 4.23673 15.4019 4.37501 15.75 4.37501H17.9375V19.6875Z" fill="#333333"/>
<path d="M13.125 8.3125V9.1875H14.6956L11.6331 12.25H7.87496C7.81738 12.2497 7.7603 12.2607 7.707 12.2825C7.65369 12.3042 7.60521 12.3363 7.56433 12.3769L4.93933 15.0019L5.55621 15.6188L8.05433 13.125H11.8125C11.87 13.1253 11.9271 13.1143 11.9804 13.0925C12.0337 13.0708 12.0822 13.0387 12.1231 12.9981L15.3125 9.80438V11.375H16.1875V8.75C16.1875 8.63397 16.1414 8.52269 16.0593 8.44064C15.9773 8.35859 15.866 8.3125 15.75 8.3125H13.125Z" fill="#333333"/>
</g>
<defs>
<clipPath id="clip0">
<rect width="21" height="21" fill="white"/>
</clipPath>
</defs>
</svg>
