<svg width="25" height="25" viewBox="0 0 25 25" fill="none" xmlns="http://www.w3.org/2000/svg">
<path d="M15.825 7.555L15.775 7.5325C14.5924 7.0184 13.622 6.1141 13.026 4.97065C12.4299 3.82721 12.2442 2.51387 12.5 1.25C10.9728 1.79077 9.63353 2.75951 8.64189 4.04061C7.65026 5.32171 7.04816 6.86107 6.90745 8.475C6.89245 8.65667 6.88245 8.83917 6.87745 9.0225C6.87745 9.0825 6.87745 9.1425 6.87745 9.205C6.87499 10.87 7.36751 12.4981 8.29245 13.8825C7.90626 13.9335 7.51368 13.9036 7.13967 13.7946C6.76567 13.6857 6.41843 13.5001 6.12004 13.2497C5.82165 12.9993 5.57864 12.6895 5.40647 12.3401C5.23429 11.9906 5.13672 11.6092 5.11995 11.22C4.4292 12.4665 4.06534 13.8676 4.06228 15.2927C4.05921 16.7178 4.41706 18.1205 5.10244 19.37C5.78783 20.6194 6.77843 21.675 7.98191 22.4383C9.18538 23.2015 10.5625 23.6477 11.985 23.735C11.3139 23.4368 10.7415 22.9538 10.3347 22.3425C9.92789 21.7311 9.7034 21.0167 9.68745 20.2825C9.68745 20.255 9.68745 20.2275 9.68745 20.2C9.68696 19.4432 9.90868 18.7029 10.3251 18.0709C10.7415 17.4389 11.3343 16.9431 12.03 16.645H12.05C12.6169 16.4005 13.0999 15.9953 13.4393 15.4796C13.7787 14.9638 13.9597 14.3599 13.96 13.7425C14.528 14.0442 15.0119 14.4826 15.3681 15.0181C15.7242 15.5537 15.9414 16.1695 16 16.81C16 16.895 16 16.98 16.0125 17.06C16.0125 17.0875 16.0125 17.115 16.0125 17.1425C16.0142 17.9059 15.7888 18.6526 15.365 19.2875L15.0525 19.75L15.615 19.8225C15.6896 19.8322 15.7647 19.8373 15.84 19.8375C16.1188 19.8384 16.3939 19.7726 16.6422 19.6456C16.8905 19.5186 17.1049 19.3341 17.2675 19.1075C17.4514 19.7386 17.4713 20.4062 17.3252 21.0471C17.1791 21.688 16.8718 22.281 16.4325 22.77C17.7626 22.0692 18.8813 21.0258 19.6729 19.7476C20.4645 18.4695 20.9002 17.003 20.935 15.5C20.935 15.44 20.935 15.38 20.935 15.3175C20.9364 13.6655 20.4529 12.0494 19.5446 10.6696C18.6362 9.28973 17.3429 8.20679 15.825 7.555ZM20.2325 15.48C20.1901 17.406 19.4306 19.247 18.1025 20.6425C18.1175 20.4958 18.125 20.3475 18.125 20.1975C18.1248 19.7652 18.0633 19.3351 17.9425 18.92L17.54 17.5325L16.6975 18.705C16.5977 18.8439 16.4655 18.9563 16.3125 19.0325C16.5816 18.4397 16.7206 17.7961 16.72 17.145C16.72 17.1125 16.72 17.08 16.72 17.0475C16.72 16.95 16.72 16.85 16.705 16.75C16.6409 15.9904 16.3871 15.2591 15.9669 14.6231C15.5467 13.9872 14.9735 13.4669 14.3 13.11L13.2675 12.56V13.73C13.2639 14.2104 13.12 14.6793 12.8535 15.079C12.587 15.4788 12.2095 15.7919 11.7675 15.98L11.75 16C10.9282 16.3524 10.2279 16.9381 9.736 17.6847C9.24404 18.4313 8.98203 19.3059 8.98245 20.2C8.98245 20.2325 8.98245 20.265 8.98245 20.2975C8.99707 21.0655 9.20607 21.8172 9.58995 22.4825C7.81771 21.7591 6.37587 20.4055 5.54223 18.6823C4.70859 16.9592 4.54214 14.9885 5.07495 13.15C5.40006 13.6032 5.82879 13.9722 6.32541 14.2262C6.82204 14.4802 7.37216 14.6117 7.92995 14.61C8.08044 14.6095 8.23074 14.5995 8.37995 14.58L9.50495 14.435L8.87495 13.5C8.02697 12.2311 7.57534 10.7387 7.57745 9.2125C7.57745 9.1575 7.57745 9.1 7.57745 9.045C7.57745 8.88 7.58995 8.71 7.60495 8.545C7.71627 7.25941 8.14683 6.02197 8.85757 4.94495C9.56831 3.86793 10.5367 2.98542 11.675 2.3775C11.6767 3.61242 12.0398 4.81984 12.7195 5.8509C13.3992 6.88196 14.3657 7.69159 15.5 8.18H15.515L15.5525 8.195C16.9444 8.79214 18.1303 9.78506 18.9628 11.0504C19.7952 12.3158 20.2376 13.7979 20.235 15.3125C20.235 15.3675 20.2325 15.425 20.2325 15.48Z" fill="#333333"/>
</svg>
