<svg width="39" height="39" viewBox="0 0 39 39" fill="none" xmlns="http://www.w3.org/2000/svg">
<circle cx="19.5" cy="19.5" r="19.5" fill="#69C9D1"/>
<path d="M22.8249 14.555L22.7749 14.5325C21.5924 14.0184 20.622 13.1141 20.0259 11.9707C19.4299 10.8272 19.2442 9.51387 19.4999 8.25C17.9728 8.79077 16.6335 9.75951 15.6419 11.0406C14.6502 12.3217 14.0481 13.8611 13.9074 15.475C13.8924 15.6567 13.8824 15.8392 13.8774 16.0225C13.8774 16.0825 13.8774 16.1425 13.8774 16.205C13.875 17.87 14.3675 19.4981 15.2924 20.8825C14.9062 20.9335 14.5136 20.9036 14.1396 20.7946C13.7656 20.6857 13.4184 20.5001 13.12 20.2497C12.8216 19.9993 12.5786 19.6895 12.4064 19.3401C12.2343 18.9906 12.1367 18.6092 12.1199 18.22C11.4292 19.4665 11.0653 20.8676 11.0622 22.2927C11.0592 23.7178 11.417 25.1205 12.1024 26.37C12.7878 27.6194 13.7784 28.675 14.9819 29.4383C16.1854 30.2015 17.5625 30.6477 18.9849 30.735C18.3139 30.4368 17.7415 29.9538 17.3347 29.3425C16.9279 28.7311 16.7034 28.0167 16.6874 27.2825C16.6874 27.255 16.6874 27.2275 16.6874 27.2C16.6869 26.4432 16.9086 25.7029 17.3251 25.0709C17.7415 24.4389 18.3343 23.9431 19.0299 23.645H19.0499C19.6169 23.4005 20.0998 22.9953 20.4392 22.4796C20.7786 21.9638 20.9596 21.3599 20.9599 20.7425C21.5279 21.0442 22.0119 21.4826 22.368 22.0181C22.7242 22.5537 22.9414 23.1695 22.9999 23.81C22.9999 23.895 22.9999 23.98 23.0124 24.06C23.0124 24.0875 23.0124 24.115 23.0124 24.1425C23.0142 24.9059 22.7888 25.6526 22.3649 26.2875L22.0524 26.75L22.6149 26.8225C22.6895 26.8323 22.7647 26.8373 22.8399 26.8375C23.1188 26.8384 23.3939 26.7726 23.6422 26.6456C23.8905 26.5186 24.1049 26.3341 24.2674 26.1075C24.4514 26.7386 24.4713 27.4062 24.3252 28.0471C24.179 28.688 23.8718 29.281 23.4324 29.77C24.7626 29.0692 25.8813 28.0258 26.6729 26.7477C27.4645 25.4695 27.9002 24.003 27.9349 22.5C27.9349 22.44 27.9349 22.38 27.9349 22.3175C27.9363 20.6655 27.4529 19.0494 26.5446 17.6696C25.6362 16.2897 24.3429 15.2068 22.8249 14.555ZM27.2324 22.48C27.1901 24.406 26.4305 26.247 25.1024 27.6425C25.1174 27.4958 25.1249 27.3475 25.1249 27.1975C25.1247 26.7652 25.0633 26.3351 24.9424 25.92L24.5399 24.5325L23.6974 25.705C23.5977 25.8439 23.4655 25.9563 23.3124 26.0325C23.5816 25.4397 23.7205 24.7961 23.7199 24.145C23.7199 24.1125 23.7199 24.08 23.7199 24.0475C23.7199 23.95 23.7199 23.85 23.7049 23.75C23.6408 22.9904 23.3871 22.2591 22.9669 21.6231C22.5466 20.9872 21.9735 20.4669 21.2999 20.11L20.2674 19.56V20.73C20.2639 21.2104 20.12 21.6793 19.8535 22.079C19.587 22.4788 19.2095 22.7919 18.7674 22.98L18.7499 23C17.9282 23.3524 17.2279 23.9381 16.736 24.6847C16.244 25.4313 15.982 26.3059 15.9824 27.2C15.9824 27.2325 15.9824 27.265 15.9824 27.2975C15.997 28.0655 16.206 28.8172 16.5899 29.4825C14.8177 28.7591 13.3758 27.4055 12.5422 25.6823C11.7086 23.9592 11.5421 21.9885 12.0749 20.15C12.4 20.6032 12.8288 20.9722 13.3254 21.2262C13.822 21.4802 14.3721 21.6117 14.9299 21.61C15.0804 21.6095 15.2307 21.5995 15.3799 21.58L16.5049 21.435L15.8749 20.5C15.0269 19.2311 14.5753 17.7387 14.5774 16.2125C14.5774 16.1575 14.5774 16.1 14.5774 16.045C14.5774 15.88 14.5899 15.71 14.6049 15.545C14.7162 14.2594 15.1468 13.022 15.8575 11.9449C16.5683 10.8679 17.5367 9.98542 18.6749 9.3775C18.6767 10.6124 19.0398 11.8198 19.7195 12.8509C20.3992 13.882 21.3657 14.6916 22.4999 15.18H22.5149L22.5524 15.195C23.9444 15.7921 25.1303 16.7851 25.9627 18.0504C26.7952 19.3158 27.2376 20.7979 27.2349 22.3125C27.2349 22.3675 27.2324 22.425 27.2324 22.48Z" fill="white"/>
</svg>
