<svg width="39" height="39" viewBox="0 0 39 39" fill="none" xmlns="http://www.w3.org/2000/svg">
<circle cx="19.5" cy="19.5" r="19" stroke="#E4E4E4"/>
<path d="M26.8249 9H12.1751C10.4242 9 9 10.4242 9 12.1751V26.8249C9 28.5758 10.4242 30 12.1751 30H26.8249C28.5758 30 30 28.5758 30 26.8249V12.1751C30 10.4242 28.5758 9 26.8249 9ZM29.25 26.8249C29.25 28.1621 28.1621 29.25 26.8249 29.25H12.1751C10.8379 29.25 9.75 28.1621 9.75 26.8249V20.4052L12.0926 18.0626C12.3892 18.2591 12.7436 18.375 13.125 18.375C13.5064 18.375 13.8608 18.2591 14.1574 18.0626L17.9374 21.8426C17.7409 22.1393 17.625 22.4936 17.625 22.875C17.625 23.9089 18.4661 24.75 19.5 24.75C20.5339 24.75 21.375 23.9089 21.375 22.875C21.375 22.4936 21.2591 22.1393 21.0626 21.8426L26.25 16.6552V19.125C26.25 19.3324 26.4176 19.5 26.625 19.5C26.8324 19.5 27 19.3324 27 19.125V15.375H23.25C23.0426 15.375 22.875 15.5426 22.875 15.75C22.875 15.9574 23.0426 16.125 23.25 16.125H25.7197L20.5324 21.3124C20.2358 21.1159 19.8814 21 19.5 21C19.1186 21 18.7642 21.1159 18.4676 21.3124L14.6876 17.5324C14.8841 17.2358 15 16.8814 15 16.5C15 15.4661 14.1589 14.625 13.125 14.625C12.0911 14.625 11.25 15.4661 11.25 16.5C11.25 16.8814 11.3659 17.2358 11.5624 17.5324L9.75 19.3448V12.1751C9.75 10.8379 10.8379 9.75 12.1751 9.75H26.8249C28.1621 9.75 29.25 10.8379 29.25 12.1751V26.8249ZM13.125 17.625C12.5048 17.625 12 17.1202 12 16.5C12 15.8797 12.5048 15.375 13.125 15.375C13.7453 15.375 14.25 15.8797 14.25 16.5C14.25 17.1202 13.7453 17.625 13.125 17.625ZM20.625 22.875C20.625 23.4952 20.1202 24 19.5 24C18.8798 24 18.375 23.4952 18.375 22.875C18.375 22.2548 18.8798 21.75 19.5 21.75C20.1202 21.75 20.625 22.2548 20.625 22.875Z" fill="#333333"/>
</svg>
