<svg width="21" height="21" viewBox="0 0 21 21" fill="none" xmlns="http://www.w3.org/2000/svg">
<path d="M20.65 19.6H1.4V0.35C1.4 0.15645 1.24355 0 1.05 0C0.85645 0 0.7 0.15645 0.7 0.35V19.6H0.35C0.15645 19.6 0 19.7564 0 19.95C0 20.1435 0.15645 20.3 0.35 20.3H0.7V20.65C0.7 20.8435 0.85645 21 1.05 21C1.24355 21 1.4 20.8435 1.4 20.65V20.3H20.65C20.8435 20.3 21 20.1435 21 19.95C21 19.7564 20.8435 19.6 20.65 19.6Z" fill="#333333"/>
<path d="M2.44998 10.1502H3.14998C3.34353 10.1502 3.49998 9.99375 3.49998 9.8002C3.49998 9.60665 3.34353 9.4502 3.14998 9.4502H2.44998C2.25643 9.4502 2.09998 9.60665 2.09998 9.8002C2.09998 9.99375 2.25643 10.1502 2.44998 10.1502Z" fill="#333333"/>
<path d="M2.44998 8.7498H3.14998C3.34353 8.7498 3.49998 8.59335 3.49998 8.3998C3.49998 8.20625 3.34353 8.0498 3.14998 8.0498H2.44998C2.25643 8.0498 2.09998 8.20625 2.09998 8.3998C2.09998 8.59335 2.25643 8.7498 2.44998 8.7498Z" fill="#333333"/>
<path d="M2.44998 7.3499H3.14998C3.34353 7.3499 3.49998 7.19345 3.49998 6.9999C3.49998 6.80635 3.34353 6.6499 3.14998 6.6499H2.44998C2.25643 6.6499 2.09998 6.80635 2.09998 6.9999C2.09998 7.19345 2.25643 7.3499 2.44998 7.3499Z" fill="#333333"/>
<path d="M2.44998 5.95H3.14998C3.34353 5.95 3.49998 5.79355 3.49998 5.6C3.49998 5.40645 3.34353 5.25 3.14998 5.25H2.44998C2.25643 5.25 2.09998 5.40645 2.09998 5.6C2.09998 5.79355 2.25643 5.95 2.44998 5.95Z" fill="#333333"/>
<path d="M2.44998 4.5501H3.14998C3.34353 4.5501 3.49998 4.39365 3.49998 4.2001C3.49998 4.00655 3.34353 3.8501 3.14998 3.8501H2.44998C2.25643 3.8501 2.09998 4.00655 2.09998 4.2001C2.09998 4.39365 2.25643 4.5501 2.44998 4.5501Z" fill="#333333"/>
<path d="M2.44998 3.1502H3.14998C3.34353 3.1502 3.49998 2.99375 3.49998 2.8002C3.49998 2.60665 3.34353 2.4502 3.14998 2.4502H2.44998C2.25643 2.4502 2.09998 2.60665 2.09998 2.8002C2.09998 2.99375 2.25643 3.1502 2.44998 3.1502Z" fill="#333333"/>
<path d="M2.44998 1.7498H3.14998C3.34353 1.7498 3.49998 1.59335 3.49998 1.3998C3.49998 1.20625 3.34353 1.0498 3.14998 1.0498H2.44998C2.25643 1.0498 2.09998 1.20625 2.09998 1.3998C2.09998 1.59335 2.25643 1.7498 2.44998 1.7498Z" fill="#333333"/>
<path d="M3.85462 17.1456C5.01277 17.1456 5.95462 16.2038 5.95462 15.0456C5.95462 14.5035 5.74637 14.0103 5.40792 13.6372L6.64202 12.4031C7.01477 12.7419 7.50792 12.9502 8.05007 12.9502C8.59222 12.9502 9.08537 12.7419 9.45847 12.4035L11.0468 13.9918C10.7083 14.3649 10.5001 14.858 10.5001 15.4002C10.5001 16.5583 11.4419 17.5002 12.6001 17.5002C13.7582 17.5002 14.7001 16.5583 14.7001 15.4002C14.7001 15.0379 14.608 14.697 14.446 14.3992L17.492 11.3531C17.8648 11.6919 18.3579 11.9002 18.9001 11.9002C20.0582 11.9002 21.0001 10.9583 21.0001 9.8002C21.0001 8.64205 20.0582 7.7002 18.9001 7.7002C17.7419 7.7002 16.8001 8.64205 16.8001 9.8002C16.8001 10.1624 16.8921 10.5033 17.0542 10.8012L14.0081 13.8472C13.6354 13.5084 13.1422 13.3002 12.6001 13.3002C12.2378 13.3002 11.8969 13.3922 11.5991 13.5543L9.89562 11.8508C10.058 11.5533 10.1501 11.2124 10.1501 10.8502C10.1501 9.69205 9.20822 8.7502 8.05007 8.7502C6.89192 8.7502 5.95007 9.69205 5.95007 10.8502C5.95007 11.2124 6.04212 11.5533 6.20417 11.8512L4.85527 13.2001C4.55742 13.038 4.21652 12.946 3.85427 12.946C2.69612 12.946 1.75427 13.8878 1.75427 15.046C1.75427 16.2041 2.69647 17.1456 3.85462 17.1456ZM18.9001 8.4002C19.6722 8.4002 20.3001 9.0281 20.3001 9.8002C20.3001 10.5723 19.6722 11.2002 18.9001 11.2002C18.128 11.2002 17.5001 10.5723 17.5001 9.8002C17.5001 9.0281 18.128 8.4002 18.9001 8.4002ZM14.0001 15.4002C14.0001 16.1723 13.3722 16.8002 12.6001 16.8002C11.828 16.8002 11.2001 16.1723 11.2001 15.4002C11.2001 14.6281 11.828 14.0002 12.6001 14.0002C13.3722 14.0002 14.0001 14.6281 14.0001 15.4002ZM8.05007 9.4502C8.82217 9.4502 9.45007 10.0781 9.45007 10.8502C9.45007 11.6223 8.82217 12.2502 8.05007 12.2502C7.27797 12.2502 6.65007 11.6223 6.65007 10.8502C6.65007 10.0781 7.27797 9.4502 8.05007 9.4502ZM3.85462 13.6456C4.62672 13.6456 5.25462 14.2735 5.25462 15.0456C5.25462 15.8177 4.62672 16.4456 3.85462 16.4456C3.08252 16.4456 2.45462 15.8177 2.45462 15.0456C2.45462 14.2735 3.08252 13.6456 3.85462 13.6456Z" fill="#333333"/>
</svg>
