<svg width="39" height="39" viewBox="0 0 39 39" fill="none" xmlns="http://www.w3.org/2000/svg">
<circle cx="19.5" cy="19.5" r="19.5" fill="#69C9D1"/>
<path d="M19.5 9.88086C20.7989 9.88086 22.0585 10.1351 23.244 10.6365C24.3893 11.1209 25.4181 11.8146 26.3018 12.6982C27.1854 13.5819 27.8791 14.6107 28.3636 15.7561C28.8649 16.9415 29.1191 18.2011 29.1191 19.5C29.1191 20.7989 28.8649 22.0585 28.3635 23.244C27.8791 24.3893 27.1854 25.4181 26.3017 26.3018C25.4181 27.1854 24.3893 27.8791 23.2439 28.3636C22.0585 28.8649 20.7989 29.1191 19.5 29.1191C18.2011 29.1191 16.9415 28.8649 15.7561 28.3635C14.6107 27.8791 13.5819 27.1854 12.6982 26.3017C11.8146 25.4181 11.1209 24.3893 10.6365 23.2439C10.1351 22.0585 9.88086 20.7989 9.88086 19.5C9.88086 18.2011 10.1351 16.9415 10.6365 15.7561C11.1209 14.6107 11.8146 13.5819 12.6982 12.6982C13.5819 11.8146 14.6107 11.1209 15.7561 10.6365C16.9415 10.1351 18.2011 9.88086 19.5 9.88086ZM19.5 9.09961C13.756 9.09961 9.09961 13.756 9.09961 19.5C9.09961 25.244 13.756 29.9004 19.5 29.9004C25.244 29.9004 29.9004 25.244 29.9004 19.5C29.9004 13.756 25.244 9.09961 19.5 9.09961Z" fill="white"/>
<path d="M19.5 24.6758C19.2843 24.6758 19.1094 24.5009 19.1094 24.2852V17.9375C19.1094 17.7218 19.2843 17.5469 19.5 17.5469C19.7157 17.5469 19.8906 17.7218 19.8906 17.9375V24.2852C19.8906 24.5009 19.7157 24.6758 19.5 24.6758Z" fill="white"/>
<path d="M19.5 16.5703C19.9315 16.5703 20.2812 16.2205 20.2812 15.7891C20.2812 15.3576 19.9315 15.0078 19.5 15.0078C19.0685 15.0078 18.7188 15.3576 18.7188 15.7891C18.7188 16.2205 19.0685 16.5703 19.5 16.5703Z" fill="white"/>
</svg>
