<svg width="21" height="21" viewBox="0 0 21 21" fill="none" xmlns="http://www.w3.org/2000/svg">
<path d="M10.5 0.788732C11.8114 0.788732 13.083 1.04542 14.2799 1.55158C15.4361 2.04065 16.4748 2.74099 17.3669 3.6331C18.2591 4.52525 18.9594 5.56387 19.4485 6.7202C19.9546 7.91695 20.2113 9.18863 20.2113 10.5C20.2113 11.8114 19.9546 13.083 19.4484 14.2799C18.9593 15.4361 18.259 16.4748 17.3669 17.3669C16.4747 18.2591 15.4361 18.9594 14.2798 19.4485C13.083 19.9546 11.8114 20.2113 10.5 20.2113C9.18863 20.2113 7.91695 19.9546 6.7202 19.4484C5.56387 18.9593 4.52525 18.259 3.6331 17.3669C2.74099 16.4747 2.04065 15.4361 1.55158 14.2798C1.04542 13.083 0.788732 11.8114 0.788732 10.5C0.788732 9.18863 1.04542 7.91695 1.55158 6.7202C2.04065 5.56387 2.74099 4.52525 3.6331 3.6331C4.52525 2.74099 5.56387 2.04065 6.7202 1.55158C7.91695 1.04542 9.18863 0.788732 10.5 0.788732ZM10.5 0C4.70099 0 0 4.70099 0 10.5C0 16.299 4.70099 21 10.5 21C16.299 21 21 16.299 21 10.5C21 4.70099 16.299 0 10.5 0Z" fill="#333333"/>
<path d="M10.5 15.7255C10.2822 15.7255 10.1056 15.5489 10.1056 15.3311V8.92269C10.1056 8.7049 10.2822 8.52832 10.5 8.52832C10.7177 8.52832 10.8943 8.7049 10.8943 8.92269V15.3311C10.8943 15.5489 10.7177 15.7255 10.5 15.7255Z" fill="#333333"/>
<path d="M10.5 7.54231C10.9356 7.54231 11.2888 7.18918 11.2888 6.75358C11.2888 6.31797 10.9356 5.96484 10.5 5.96484C10.0644 5.96484 9.7113 6.31797 9.7113 6.75358C9.7113 7.18918 10.0644 7.54231 10.5 7.54231Z" fill="#333333"/>
</svg>
