<svg width="39" height="39" viewBox="0 0 39 39" fill="none" xmlns="http://www.w3.org/2000/svg">
<circle cx="19.5" cy="19.5" r="19" stroke="#E4E4E4"/>
<path d="M26.6719 28.625H12.3281C11.9925 28.625 11.6705 28.4917 11.4332 28.2543C11.1958 28.017 11.0625 27.695 11.0625 27.3594V15.5469C11.0625 15.2112 11.1958 14.8893 11.4332 14.6519C11.6705 14.4146 11.9925 14.2813 12.3281 14.2812H26.6719C27.0075 14.2812 27.3295 14.4146 27.5668 14.6519C27.8042 14.8893 27.9375 15.2112 27.9375 15.5469V27.3594C27.9375 27.695 27.8042 28.017 27.5668 28.2543C27.3295 28.4917 27.0075 28.625 26.6719 28.625ZM12.3281 15.125C12.2162 15.125 12.1089 15.1694 12.0298 15.2486C11.9507 15.3277 11.9062 15.435 11.9062 15.5469V27.3594C11.9062 27.4713 11.9507 27.5786 12.0298 27.6577C12.1089 27.7368 12.2162 27.7812 12.3281 27.7812H26.6719C26.7838 27.7812 26.8911 27.7368 26.9702 27.6577C27.0493 27.5786 27.0938 27.4713 27.0938 27.3594V15.5469C27.0938 15.435 27.0493 15.3277 26.9702 15.2486C26.8911 15.1694 26.7838 15.125 26.6719 15.125H12.3281Z" fill="#333333"/>
<path d="M19.5 24.8281C19.0573 24.8281 18.6258 24.6888 18.2666 24.43C17.9075 24.1711 17.6389 23.8058 17.4989 23.3858C17.3589 22.9658 17.3546 22.5124 17.4866 22.0898C17.6186 21.6672 17.8802 21.2969 18.2344 21.0312V19.3438C18.2344 19.0081 18.3677 18.6862 18.6051 18.4488C18.8424 18.2115 19.1643 18.0781 19.5 18.0781C19.8357 18.0781 20.1576 18.2115 20.3949 18.4488C20.6323 18.6862 20.7656 19.0081 20.7656 19.3438V21.0312C21.1198 21.2969 21.3814 21.6672 21.5134 22.0898C21.6454 22.5124 21.6411 22.9658 21.5011 23.3858C21.3611 23.8058 21.0925 24.1711 20.7334 24.43C20.3742 24.6888 19.9427 24.8281 19.5 24.8281ZM19.5 18.9219C19.3881 18.9219 19.2808 18.9663 19.2017 19.0454C19.1226 19.1246 19.0781 19.2319 19.0781 19.3438V21.2633C19.0784 21.3376 19.0591 21.4107 19.022 21.4752C18.985 21.5396 18.9316 21.5931 18.8672 21.6303C18.6759 21.7407 18.5168 21.8993 18.4058 22.0903C18.2948 22.2812 18.2357 22.4979 18.2344 22.7188C18.2344 23.0544 18.3677 23.3763 18.6051 23.6137C18.8424 23.851 19.1643 23.9844 19.5 23.9844C19.8357 23.9844 20.1576 23.851 20.3949 23.6137C20.6323 23.3763 20.7656 23.0544 20.7656 22.7188C20.7643 22.4979 20.7052 22.2812 20.5942 22.0903C20.4831 21.8993 20.3241 21.7407 20.1328 21.6303C20.0684 21.5931 20.015 21.5396 19.978 21.4752C19.9409 21.4107 19.9216 21.3376 19.9219 21.2633V19.3438C19.9219 19.2319 19.8774 19.1246 19.7983 19.0454C19.7192 18.9663 19.6119 18.9219 19.5 18.9219Z" fill="#333333"/>
<path d="M23.7188 15.125H15.2812C15.1694 15.125 15.0621 15.0806 14.9829 15.0014C14.9038 14.9223 14.8594 14.815 14.8594 14.7031V12.5938C14.8594 11.363 15.3483 10.1826 16.2186 9.31233C17.0889 8.44205 18.2692 7.95313 19.5 7.95312C20.7308 7.95313 21.9111 8.44205 22.7814 9.31233C23.6517 10.1826 24.1406 11.363 24.1406 12.5938V14.7031C24.1406 14.815 24.0962 14.9223 24.0171 15.0014C23.9379 15.0806 23.8306 15.125 23.7188 15.125ZM15.7031 14.2812H23.2969V12.5938C23.2969 11.5868 22.8968 10.621 22.1848 9.90895C21.4727 9.1969 20.507 8.79688 19.5 8.79688C18.493 8.79688 17.5273 9.1969 16.8152 9.90895C16.1032 10.621 15.7031 11.5868 15.7031 12.5938V14.2812Z" fill="#333333"/>
</svg>
