<svg width="39" height="39" viewBox="0 0 39 39" fill="none" xmlns="http://www.w3.org/2000/svg">
<circle cx="19.5" cy="19.5" r="19.5" fill="#69C9D1"/>
<circle cx="19.5" cy="19.5" r="19.5" stroke="#E4E4E4"/>
<path d="M28.5865 18.8943H10.4134C10.079 18.8943 9.80768 19.1656 9.80768 19.5001C9.80768 19.8345 10.079 20.1058 10.4134 20.1058H28.5865C28.921 20.1058 29.1923 19.8345 29.1923 19.5001C29.1923 19.1656 28.921 18.8943 28.5865 18.8943Z" fill="white"/>
<path d="M28.5865 22.5288H10.4134C10.079 22.5288 9.80768 22.8001 9.80768 23.1346C9.80768 23.469 10.079 23.7403 10.4134 23.7403H28.5865C28.921 23.7403 29.1923 23.469 29.1923 23.1346C29.1923 22.8001 28.921 22.5288 28.5865 22.5288Z" fill="white"/>
<path d="M28.5865 26.5673H10.4134C10.079 26.5673 9.80768 26.8386 9.80768 27.173C9.80768 27.5075 10.079 27.7788 10.4134 27.7788H28.5865C28.921 27.7788 29.1923 27.5075 29.1923 27.173C29.1923 26.8386 28.921 26.5673 28.5865 26.5673Z" fill="white"/>
<path d="M10.4134 12.8365H28.5865C28.921 12.8365 29.1923 12.5652 29.1923 12.2308C29.1923 11.8963 28.921 11.625 28.5865 11.625H10.4134C10.079 11.625 9.80768 11.8963 9.80768 12.2308C9.80768 12.5652 10.079 12.8365 10.4134 12.8365Z" fill="white"/>
<path d="M28.5865 15.2596H10.4134C10.079 15.2596 9.80768 15.531 9.80768 15.8654C9.80768 16.1998 10.079 16.4712 10.4134 16.4712H28.5865C28.921 16.4712 29.1923 16.1998 29.1923 15.8654C29.1923 15.531 28.921 15.2596 28.5865 15.2596Z" fill="white"/>
</svg>
