<svg width="39" height="39" viewBox="0 0 39 39" fill="none" xmlns="http://www.w3.org/2000/svg">
<circle cx="19.5" cy="19.5" r="19.5" fill="#69C9D1"/>
<path d="M30 16.6134C30 16.6087 30 16.6039 30 16.5943C30 16.5847 29.9952 16.5751 29.9952 16.5703C29.9952 16.5655 29.9952 16.5607 29.9904 16.556C29.9856 16.5464 29.9856 16.5368 29.9808 16.5272C29.9808 16.5224 29.976 16.5176 29.976 16.5176C29.9713 16.5033 29.9665 16.4937 29.9569 16.4793L29.9521 16.4745C29.9473 16.4649 29.9377 16.4553 29.9329 16.4458C29.9281 16.441 29.9281 16.4362 29.9233 16.4362C29.9185 16.4314 29.9138 16.4218 29.9042 16.417C29.8994 16.4122 29.8946 16.4074 29.8898 16.4026C29.885 16.3978 29.8802 16.3931 29.8754 16.3883L25.8939 13.1302C24.9788 11.3287 23.3498 9.99675 21.4093 9.46492L19.7132 8.07546C19.5886 7.97485 19.4114 7.97485 19.2868 8.07546L17.5907 9.46013C17.2361 9.55595 16.8864 9.68532 16.551 9.83385C15.0657 10.5046 13.8439 11.6737 13.1061 13.1302L9.12457 16.3883C9.11978 16.3931 9.11499 16.3978 9.1102 16.4026C9.10541 16.4074 9.10062 16.4122 9.09582 16.4122C9.09103 16.417 9.08145 16.4266 9.07666 16.4314C9.07187 16.4362 9.07187 16.4362 9.06708 16.441C9.05749 16.4505 9.0527 16.4601 9.04791 16.4697C9.04791 16.4697 9.04791 16.4745 9.04312 16.4745C9.03833 16.4889 9.02875 16.4985 9.02396 16.5128C9.02396 16.5176 9.01916 16.5224 9.01916 16.5224C9.01437 16.532 9.01437 16.5416 9.00958 16.5512C9.00958 16.556 9.00479 16.5607 9.00479 16.5655C9.00479 16.5751 9 16.5847 9 16.5895C9 16.5943 9 16.5991 9 16.6087C9 16.6182 9 16.6278 9 16.6326C9 16.6374 9 16.6374 9 16.6422V26.2726C9 27.8729 10.2984 29.1713 11.8987 29.1713H27.0917C28.692 29.1713 29.9904 27.8729 29.9904 26.2726V16.6422C29.9904 16.6374 29.9904 16.6374 29.9904 16.6326C30 16.6326 30 16.623 30 16.6134ZM29.0849 16.6039L28.9507 16.6853L26.4401 18.1946C26.4449 18.1802 26.4449 18.1706 26.4497 18.1562C26.4641 18.1083 26.4736 18.0556 26.488 18.0077C26.4928 17.9885 26.4976 17.9694 26.5024 17.9502C26.5168 17.8831 26.5311 17.8161 26.5455 17.749C26.5455 17.7442 26.5455 17.7394 26.5503 17.7346C26.5647 17.6723 26.5743 17.61 26.5838 17.5477C26.5886 17.5286 26.5886 17.5046 26.5934 17.4855C26.603 17.4375 26.6078 17.3848 26.6174 17.3369C26.6222 17.3178 26.6222 17.2986 26.627 17.2746C26.6366 17.2076 26.6413 17.1357 26.6509 17.0686C26.6509 17.0638 26.6509 17.0638 26.6509 17.059C26.6557 16.992 26.6605 16.9249 26.6653 16.8578C26.6653 16.8386 26.6701 16.8147 26.6701 16.7955C26.6749 16.7428 26.6749 16.6949 26.6797 16.6422C26.6797 16.623 26.6797 16.5991 26.6797 16.5799C26.6797 16.508 26.6845 16.441 26.6845 16.3691C26.6845 16.2924 26.6845 16.2158 26.6797 16.1343C26.6797 16.1104 26.6797 16.0864 26.6749 16.0625C26.6749 16.0098 26.6701 15.957 26.6653 15.9043C26.6653 15.8756 26.6605 15.8469 26.6605 15.8181C26.6557 15.7654 26.6509 15.7175 26.6461 15.6696C26.6413 15.6408 26.6413 15.6169 26.6365 15.5881C26.6318 15.5354 26.6222 15.4779 26.6174 15.4252C26.6126 15.4013 26.6126 15.3821 26.6078 15.3581C26.5982 15.2815 26.5838 15.2048 26.5743 15.133C26.5743 15.1234 26.5695 15.1138 26.5695 15.1042C26.5599 15.0371 26.5455 14.9748 26.5311 14.9078C26.5264 14.8838 26.5216 14.8599 26.5168 14.8311C26.5072 14.7832 26.4928 14.7305 26.4832 14.6826C26.4784 14.6538 26.4689 14.6299 26.4641 14.6011C26.4497 14.5532 26.4401 14.5053 26.4257 14.4574C26.4209 14.4382 26.4162 14.4239 26.4114 14.4047L29.0849 16.6039ZM19.5072 8.77019L20.0678 9.23015C19.6988 9.2014 19.3203 9.2014 18.9466 9.23015L19.5072 8.77019ZM16.8385 10.4471C17.1643 10.3034 17.4997 10.1836 17.8446 10.0926C18.6591 9.87697 19.5168 9.82426 20.3504 9.93446C20.5565 9.96321 20.7673 9.99675 20.9685 10.0447C21.0356 10.059 21.1027 10.0782 21.1697 10.0926C22.9808 10.5717 24.4949 11.8126 25.3285 13.4944C25.7741 14.3951 25.9993 15.3629 25.9993 16.3691C25.9993 16.4218 25.9993 16.4745 25.9993 16.5224C25.9993 16.5416 25.9993 16.556 25.9993 16.5703C25.9993 16.6039 25.9993 16.6422 25.9945 16.6757C25.9945 16.6949 25.9945 16.7141 25.9897 16.738C25.9897 16.7668 25.9849 16.8003 25.9849 16.8291C25.9849 16.853 25.9802 16.8722 25.9802 16.8961C25.9802 16.9249 25.9754 16.9536 25.9706 16.9824C25.9706 17.0063 25.9658 17.0255 25.9658 17.0495C25.961 17.0782 25.961 17.1069 25.9562 17.1357C25.9514 17.1597 25.9514 17.1836 25.9466 17.2028C25.9418 17.2315 25.9418 17.2603 25.937 17.2842C25.9322 17.3082 25.9322 17.3321 25.9274 17.3513C25.9227 17.38 25.9179 17.404 25.9131 17.4328C25.9083 17.4567 25.9035 17.4807 25.8987 17.5046C25.8939 17.5334 25.8891 17.5573 25.8843 17.5861C25.8795 17.61 25.8747 17.634 25.87 17.6579C25.8652 17.6867 25.8604 17.7106 25.8556 17.7394C25.8508 17.7633 25.846 17.7873 25.8412 17.8113C25.8364 17.84 25.8268 17.864 25.822 17.8927C25.8172 17.9167 25.8125 17.9406 25.8029 17.9598C25.7981 17.9885 25.7885 18.0125 25.7837 18.0364C25.7789 18.0604 25.7693 18.0844 25.7645 18.1035C25.755 18.1275 25.7502 18.1562 25.7406 18.1802C25.7358 18.2041 25.7262 18.2281 25.7214 18.2473C25.7118 18.2712 25.7071 18.3 25.6975 18.3239C25.6879 18.3479 25.6831 18.367 25.6735 18.391C25.6639 18.415 25.6543 18.4437 25.6448 18.4677C25.6352 18.4916 25.6304 18.5108 25.6208 18.5347C25.6112 18.5587 25.6016 18.5874 25.5921 18.6114C25.5825 18.6354 25.5777 18.6545 25.5681 18.6785C25.5633 18.6881 25.5633 18.6928 25.5585 18.7024L19.5072 22.3534L13.4511 18.7216C13.4511 18.7168 13.4463 18.712 13.4463 18.7072C13.4367 18.6881 13.4319 18.6641 13.4223 18.6449C13.4127 18.621 13.4031 18.597 13.3984 18.5731C13.3888 18.5539 13.384 18.5299 13.3744 18.5108C13.3648 18.4868 13.36 18.4629 13.3504 18.4389C13.3457 18.4197 13.3361 18.3958 13.3313 18.3766C13.3217 18.3527 13.3169 18.3287 13.3073 18.3048C13.3025 18.2856 13.293 18.2616 13.2882 18.2425C13.2834 18.2185 13.2738 18.1946 13.269 18.1706C13.2642 18.1466 13.2546 18.1275 13.2498 18.1035C13.245 18.0796 13.2355 18.0556 13.2307 18.0317C13.2259 18.0077 13.2211 17.9885 13.2115 17.9646C13.2067 17.9406 13.2019 17.9167 13.1923 17.8975C13.1875 17.8735 13.1828 17.8544 13.178 17.8304C13.1732 17.8065 13.1684 17.7873 13.1636 17.7633C13.1588 17.7394 13.154 17.7154 13.1492 17.6963C13.1444 17.6723 13.1396 17.6531 13.1348 17.6292C13.13 17.6052 13.1253 17.5813 13.1205 17.5573C13.1157 17.5334 13.1109 17.5142 13.1109 17.4902C13.1061 17.4663 13.1013 17.4423 13.0965 17.4184C13.0917 17.3992 13.0917 17.3753 13.0869 17.3561C13.0821 17.3321 13.0773 17.3082 13.0773 17.2794C13.0726 17.2603 13.0726 17.2363 13.0678 17.2171C13.063 17.1932 13.063 17.1644 13.0582 17.1405C13.0534 17.1213 13.0534 17.0974 13.0534 17.0782C13.0486 17.0542 13.0486 17.0255 13.0438 17.0015C13.0438 16.9824 13.039 16.9584 13.039 16.9393C13.039 16.9153 13.0342 16.8865 13.0342 16.8626C13.0342 16.8386 13.0294 16.8147 13.0294 16.7955C13.0294 16.7716 13.0246 16.7476 13.0246 16.7236C13.0246 16.6853 13.0198 16.647 13.0198 16.6134C13.0198 16.6039 13.0198 16.5943 13.0198 16.5847C13.0151 16.5128 13.0151 16.4362 13.0151 16.3739C13.0151 16.3116 13.0151 16.2493 13.0198 16.187C13.0246 16.0672 13.0294 15.9427 13.039 15.8229C13.0438 15.7462 13.0534 15.6744 13.063 15.5977C13.1492 14.8694 13.36 14.1651 13.6858 13.4991C14.347 12.148 15.4682 11.0652 16.8385 10.4471ZM12.6126 14.4095C12.6078 14.4239 12.603 14.443 12.5982 14.4574C12.5838 14.5053 12.5743 14.5532 12.5599 14.6011C12.5551 14.6299 12.5455 14.6538 12.5407 14.6826C12.5264 14.7305 12.5168 14.7832 12.5072 14.8311C12.5024 14.8551 12.4976 14.879 12.4928 14.9078C12.4784 14.9701 12.4689 15.0323 12.4545 15.0994C12.4545 15.109 12.4497 15.1234 12.4497 15.133C12.4353 15.2096 12.4257 15.2815 12.4162 15.3581C12.4114 15.3821 12.4114 15.4013 12.4066 15.4252C12.4018 15.4779 12.3922 15.5306 12.3874 15.5881C12.3826 15.6169 12.3826 15.6456 12.3778 15.6696C12.373 15.7175 12.3682 15.7702 12.3634 15.8181C12.3634 15.8469 12.3587 15.8756 12.3587 15.9043C12.3539 15.957 12.3539 16.0098 12.3491 16.0625C12.3491 16.0864 12.3491 16.1104 12.3443 16.1343C12.3395 16.211 12.3395 16.2876 12.3395 16.3643C12.3395 16.4122 12.3395 16.4697 12.3395 16.532C12.3395 16.556 12.3395 16.5799 12.3395 16.6039C12.3395 16.6087 12.3395 16.6087 12.3395 16.6134C12.3395 16.6709 12.3443 16.7284 12.3491 16.7859C12.3491 16.8051 12.3539 16.8243 12.3539 16.8434C12.3587 16.8865 12.3587 16.9297 12.3634 16.968C12.3634 16.9872 12.3682 17.0111 12.3682 17.0303C12.373 17.0734 12.3778 17.1165 12.3826 17.1597C12.3826 17.1788 12.3874 17.1932 12.3874 17.2124C12.3922 17.2746 12.4018 17.3321 12.4114 17.3944C12.4114 17.404 12.4162 17.4136 12.4162 17.428C12.4257 17.4759 12.4305 17.5286 12.4401 17.5765C12.4449 17.5957 12.4449 17.6148 12.4497 17.6388C12.4593 17.6819 12.4641 17.7202 12.4736 17.7633C12.4784 17.7825 12.4832 17.8065 12.488 17.8256C12.4976 17.8688 12.5072 17.9167 12.5168 17.9598C12.5216 17.9742 12.5216 17.9885 12.5264 18.0029C12.5407 18.0604 12.5551 18.1227 12.5695 18.1802C12.5695 18.185 12.5695 18.185 12.5695 18.1898L9.92471 16.6039L12.6126 14.4095ZM27.1061 28.5053H11.9083C10.6817 28.5053 9.68515 27.5039 9.68515 26.2774V17.2411L11.5585 18.367L13.0103 19.239L19.3347 23.0337C19.3874 23.0672 19.4497 23.0816 19.5072 23.0816C19.5647 23.0816 19.627 23.0672 19.6797 23.0337L28.7112 17.6148L29.334 17.2411V26.2774C29.3292 27.5039 28.3326 28.5053 27.1061 28.5053Z" fill="white"/>
<path d="M16.8768 19.1193C17.5476 19.5936 18.3046 19.8906 19.1335 19.9769V20.6572C19.1335 20.9208 19.3539 21.1316 19.6174 21.1316C19.8809 21.1316 20.0918 20.9208 20.0918 20.6572V19.9961C21.486 19.8619 22.4347 19.0618 22.4347 17.8496C22.4347 16.6709 21.7208 16.0002 20.0486 15.5833V13.4704C20.4223 13.5566 20.7961 13.7243 21.1794 13.9543C21.2896 14.0214 21.3998 14.0549 21.51 14.0549C21.8501 14.0549 22.128 13.7914 22.128 13.4512C22.128 13.1877 21.9747 13.02 21.7974 12.9242C21.2896 12.6032 20.7434 12.3972 20.0918 12.3205V12.0761C20.0918 11.8126 19.8809 11.6018 19.6174 11.6018C19.3539 11.6018 19.1335 11.8126 19.1335 12.0761V12.3061C17.7584 12.4163 16.8241 13.2308 16.8241 14.4047C16.8241 15.6456 17.5716 16.2541 19.1766 16.6709V18.8366C18.5729 18.7264 18.0651 18.4724 17.5476 18.0987C17.447 18.0221 17.3176 17.9789 17.1835 17.9789C16.8433 17.9789 16.5798 18.2425 16.5798 18.5826C16.5798 18.8222 16.69 18.9995 16.8768 19.1193ZM20.0438 16.8865C20.8919 17.1501 21.1314 17.4471 21.1314 17.931C21.1314 18.4581 20.7482 18.8126 20.0438 18.8893V16.8865ZM18.1226 14.3376C18.1226 13.8537 18.4723 13.48 19.1766 13.4129V15.3581C18.3286 15.085 18.1226 14.7976 18.1226 14.3376Z" fill="white"/>
</svg>
