<svg width="39" height="39" viewBox="0 0 39 39" fill="none" xmlns="http://www.w3.org/2000/svg">
<circle cx="19.5" cy="19.5" r="19.5" fill="#69C9D1"/>
<circle cx="19.5" cy="19.5" r="19.5" stroke="#E4E4E4"/>
<path d="M29.0412 24.2369C28.1703 23.342 25.6948 21.6656 24.0722 21.6656C23.6964 21.6656 23.3684 21.7491 23.0999 21.9222C22.3066 22.4293 21.6743 22.823 21.37 22.823C21.203 22.823 21.0241 22.6739 20.6304 22.3338L20.5647 22.2741C19.4731 21.3256 19.2405 21.081 18.817 20.6395L18.7096 20.5261C18.632 20.4486 18.5664 20.377 18.5008 20.3114C18.131 19.9295 17.8625 19.6551 16.9141 18.5813L16.8723 18.5335C16.419 18.0205 16.1207 17.6864 16.1028 17.4418C16.0849 17.2031 16.2937 16.8153 16.8246 16.0935C17.4689 15.2224 17.4927 14.1486 16.9022 12.9017C16.4309 11.9173 15.6614 10.9747 14.9814 10.1455L14.9217 10.0739C14.3372 9.35795 13.6571 9 12.8996 9C12.0585 9 11.3606 9.45341 10.9907 9.69205C10.9609 9.70994 10.9311 9.73381 10.9012 9.7517C10.0721 10.2767 9.46962 10.9986 9.24294 11.7324C8.90293 12.8361 8.67626 14.2679 10.3047 17.2449C11.7125 19.8222 12.989 21.5523 15.0172 23.6344C16.926 25.5912 17.7731 26.2236 19.67 27.5957C21.7816 29.123 23.8098 30 25.2295 30C26.5478 30 27.5857 30 29.0651 28.2162C30.616 26.3429 29.9718 25.1974 29.0412 24.2369ZM28.3552 27.5719C27.1622 29.0156 26.4762 29.0156 25.2354 29.0156C24.0245 29.0156 22.1455 28.1804 20.2128 26.7903C18.3636 25.454 17.5404 24.8395 15.6853 22.9364C13.7228 20.9259 12.488 19.2494 11.1279 16.7616C9.69033 14.1307 9.85139 12.9793 10.1437 12.0307C10.2988 11.5236 10.7641 10.9807 11.3964 10.5869C11.4262 10.569 11.456 10.5452 11.4918 10.5273C11.8079 10.3244 12.3329 9.98438 12.9055 9.98438C13.3827 9.98438 13.8063 10.223 14.2119 10.7182L14.2715 10.7898C15.7927 12.6511 16.9797 14.2977 16.0849 15.5148C15.4526 16.3679 15.1186 16.9466 15.1723 17.5432C15.22 18.1219 15.6077 18.5574 16.1923 19.2136L16.2341 19.2614C17.1945 20.3472 17.4689 20.6335 17.8506 21.0213C17.9162 21.0869 17.9819 21.1585 18.0594 21.2361L18.1668 21.3494C18.6082 21.8088 18.8528 22.0594 19.9742 23.0437L20.0398 23.1034C20.517 23.521 20.869 23.8253 21.382 23.8253C21.9129 23.8253 22.4974 23.4912 23.607 22.7812C23.7203 22.7097 23.8814 22.6679 24.0842 22.6679C25.3786 22.6679 27.6096 24.1474 28.391 24.9528C29.1068 25.6807 29.4647 26.2295 28.3552 27.5719Z" fill="white"/>
</svg>
