<svg width="22" height="22" viewBox="0 0 22 22" fill="none" xmlns="http://www.w3.org/2000/svg">
<path d="M18.6999 5.71981H16.5879L15.4219 3.95981C14.9819 3.29981 14.2119 2.90381 13.4199 2.90381H8.57988C7.78788 2.90381 7.01788 3.29981 6.57788 3.95981L5.41188 5.71981H3.29988C1.95788 5.71981 0.879883 6.79781 0.879883 8.13981V16.6758C0.879883 18.0178 1.95788 19.0958 3.29988 19.0958H18.6999C20.0419 19.0958 21.1199 18.0178 21.1199 16.6758V8.13981C21.1199 6.79781 20.0419 5.71981 18.6999 5.71981ZM10.9999 17.1158C7.98588 17.1158 5.54388 14.6738 5.54388 11.6598C5.54388 8.64581 7.98588 6.22581 10.9999 6.22581C14.0139 6.22581 16.4559 8.66781 16.4559 11.6818C16.4559 14.6738 14.0139 17.1158 10.9999 17.1158ZM18.3919 9.12981C18.3699 9.12981 18.3479 9.12981 18.3039 9.12981H17.4239C17.0279 9.10781 16.7199 8.77781 16.7419 8.38181C16.7639 8.00781 17.0499 7.72181 17.4239 7.69981H18.3039C18.6999 7.67781 19.0299 7.98581 19.0519 8.38181C19.0739 8.77781 18.7879 9.10781 18.3919 9.12981Z" fill="#69C9D1"/>
<path d="M10.9999 8.646C9.32787 8.646 7.96387 10.01 7.96387 11.682C7.96387 13.354 9.32787 14.696 10.9999 14.696C12.6719 14.696 14.0359 13.332 14.0359 11.66C14.0359 9.988 12.6719 8.646 10.9999 8.646Z" fill="#69C9D1"/>
</svg>
