<svg width="32" height="32" viewBox="0 0 32 32" fill="none" xmlns="http://www.w3.org/2000/svg">
<path d="M29 5H3C2.73478 5 2.48043 5.10536 2.29289 5.29289C2.10536 5.48043 2 5.73478 2 6V26C2 26.2652 2.10536 26.5196 2.29289 26.7071C2.48043 26.8946 2.73478 27 3 27H29C29.2652 27 29.5196 26.8946 29.7071 26.7071C29.8946 26.5196 30 26.2652 30 26V6C30 5.73478 29.8946 5.48043 29.7071 5.29289C29.5196 5.10536 29.2652 5 29 5ZM10 9C10.3956 9 10.7822 9.1173 11.1111 9.33706C11.44 9.55682 11.6964 9.86918 11.8478 10.2346C11.9991 10.6001 12.0387 11.0022 11.9616 11.3902C11.8844 11.7781 11.6939 12.1345 11.4142 12.4142C11.1345 12.6939 10.7781 12.8844 10.3902 12.9616C10.0022 13.0387 9.60009 12.9991 9.23463 12.8478C8.86918 12.6964 8.55682 12.44 8.33706 12.1111C8.1173 11.7822 8 11.3956 8 11C8 10.4696 8.21071 9.96086 8.58579 9.58579C8.96086 9.21071 9.46957 9 10 9ZM25.9 22.44C25.8175 22.6083 25.6894 22.75 25.5303 22.8491C25.3712 22.9481 25.1874 23.0004 25 23H7C6.81151 22.9995 6.62702 22.9457 6.46778 22.8448C6.30854 22.744 6.18105 22.6002 6.1 22.43C6.02974 22.2676 6.00383 22.0895 6.02491 21.9138C6.046 21.7381 6.11331 21.5712 6.22 21.43L10.22 16.43C10.3042 16.3243 10.409 16.2368 10.5279 16.1727C10.6469 16.1086 10.7776 16.0693 10.9122 16.0572C11.0468 16.045 11.1824 16.0603 11.311 16.102C11.4395 16.1437 11.5582 16.2111 11.66 16.3L13.28 17.72L17.2 12.4C17.2931 12.2758 17.4139 12.175 17.5528 12.1056C17.6916 12.0361 17.8448 12 18 12C18.1544 11.9988 18.307 12.0334 18.4458 12.1011C18.5846 12.1688 18.7058 12.2676 18.8 12.39L25.8 21.39C25.9129 21.5383 25.982 21.7152 25.9997 21.9007C26.0174 22.0863 25.9828 22.2731 25.9 22.44Z" fill="white"/>
</svg>
