<svg width="178" height="178" viewBox="0 0 178 178" fill="none" xmlns="http://www.w3.org/2000/svg">
<path d="M161.312 27.8125H16.6875C15.2122 27.8125 13.7974 28.3985 12.7542 29.4417C11.711 30.4849 11.125 31.8997 11.125 33.375V144.625C11.125 146.1 11.711 147.515 12.7542 148.558C13.7974 149.601 15.2122 150.188 16.6875 150.188H161.312C162.788 150.188 164.203 149.601 165.246 148.558C166.289 147.515 166.875 146.1 166.875 144.625V33.375C166.875 31.8997 166.289 30.4849 165.246 29.4417C164.203 28.3985 162.788 27.8125 161.312 27.8125ZM55.625 50.0625C57.8253 50.0625 59.9762 50.715 61.8057 51.9374C63.6352 53.1598 65.0611 54.8973 65.9032 56.9301C66.7452 58.963 66.9655 61.1998 66.5362 63.3579C66.107 65.5159 65.0474 67.4982 63.4916 69.0541C61.9357 70.6099 59.9534 71.6695 57.7954 72.0987C55.6373 72.528 53.4005 72.3077 51.3676 71.4657C49.3348 70.6236 47.5973 69.1977 46.3749 67.3682C45.1525 65.5387 44.5 63.3878 44.5 61.1875C44.5 58.237 45.6721 55.4073 47.7584 53.3209C49.8448 51.2346 52.6745 50.0625 55.625 50.0625ZM144.069 124.823C143.61 125.759 142.897 126.547 142.012 127.098C141.127 127.649 140.105 127.94 139.062 127.938H38.9375C37.889 127.935 36.8628 127.635 35.977 127.074C35.0913 126.513 34.3821 125.713 33.9312 124.767C33.5404 123.864 33.3963 122.873 33.5136 121.895C33.6309 120.918 34.0053 119.99 34.5987 119.204L56.8488 91.3919C57.3171 90.804 57.8998 90.3171 58.5616 89.9607C59.2234 89.6042 59.9505 89.3856 60.6992 89.318C61.4478 89.2505 62.2024 89.3353 62.9173 89.5674C63.6322 89.7996 64.2926 90.1742 64.8587 90.6687L73.87 98.5675L95.675 68.975C96.1931 68.2842 96.865 67.7234 97.6374 67.3372C98.4098 66.9511 99.2615 66.75 100.125 66.75C100.984 66.7435 101.833 66.936 102.605 67.3123C103.377 67.6887 104.051 68.2388 104.575 68.9194L143.512 118.982C144.14 119.807 144.525 120.791 144.623 121.823C144.722 122.855 144.529 123.894 144.069 124.823Z" fill="#E4E4E4"/>
</svg>
