<svg width="39" height="39" viewBox="0 0 39 39" fill="none" xmlns="http://www.w3.org/2000/svg">
<circle cx="19.5" cy="19.5" r="19.5" fill="#69C9D1"/>
<g clip-path="url(#clip0)">
<path d="M25.2882 22.1249C26.3557 20.6155 27.1913 18.9967 27.1913 17.063C27.1913 15.0324 26.3846 13.085 24.9488 11.6492C23.513 10.2134 21.5656 9.40674 19.535 9.40674C17.5045 9.40674 15.5571 10.2134 14.1212 11.6492C12.6854 13.085 11.8788 15.0324 11.8788 17.063C11.8788 19.5655 13.1563 21.2892 14.6088 23.188L19.4607 29.5624C19.5482 29.6761 21.145 27.5455 21.2807 27.3749C21.8932 26.5903 22.4998 25.8013 23.1007 25.008C23.8138 24.0542 24.6013 23.118 25.2882 22.1249Z" stroke="white" stroke-linecap="round" stroke-linejoin="round"/>
<path d="M19.5394 20.375C21.482 20.375 23.0569 18.808 23.0569 16.875C23.0569 14.942 21.482 13.375 19.5394 13.375C17.5967 13.375 16.0219 14.942 16.0219 16.875C16.0219 18.808 17.5967 20.375 19.5394 20.375Z" stroke="white" stroke-linecap="round" stroke-linejoin="round"/>
</g>
<defs>
<clipPath id="clip0">
<rect x="9" y="9" width="21" height="21" fill="white"/>
</clipPath>
</defs>
</svg>
