<svg width="66" height="66" viewBox="0 0 66 66" fill="none" xmlns="http://www.w3.org/2000/svg">
<path d="M61.2855 33.0001C61.2855 36.8304 60.5367 40.4889 59.0389 43.9755C57.5411 47.4621 55.5277 50.4699 52.9987 52.999C50.4697 55.528 47.4619 57.5414 43.9753 59.0391C40.4887 60.5369 36.8302 61.2858 32.9998 61.2858C28.7766 61.2858 24.7621 60.3957 20.9563 58.6156C17.1505 56.8354 13.9094 54.3248 11.2331 51.0838C11.0612 50.8382 10.9814 50.562 10.9937 50.2551C11.006 49.9482 11.1103 49.6965 11.3067 49.5001L16.3525 44.4175C16.598 44.1965 16.905 44.086 17.2733 44.086C17.6661 44.1351 17.9485 44.2824 18.1204 44.528C19.9128 46.8606 22.1103 48.6652 24.713 49.942C27.3157 51.2188 30.0779 51.8572 32.9998 51.8572C35.5534 51.8572 37.9903 51.36 40.3106 50.3656C42.631 49.3712 44.6382 48.0269 46.3324 46.3327C48.0266 44.6385 49.3709 42.6312 50.3653 40.3109C51.3598 37.9906 51.857 35.5536 51.857 33.0001C51.857 30.4465 51.3598 28.0096 50.3653 25.6892C49.3709 23.3689 48.0266 21.3617 46.3324 19.6675C44.6382 17.9733 42.631 16.629 40.3106 15.6346C37.9903 14.6401 35.5534 14.1429 32.9998 14.1429C30.5936 14.1429 28.2855 14.5788 26.0757 15.4504C23.8659 16.3221 21.9016 17.5681 20.1829 19.1887L25.2286 24.2713C25.9898 25.0079 26.1617 25.855 25.7442 26.8126C25.3268 27.7947 24.6025 28.2858 23.5713 28.2858H7.07125C6.43286 28.2858 5.88041 28.0525 5.41389 27.586C4.94737 27.1195 4.71411 26.567 4.71411 25.9286V9.42864C4.71411 8.39739 5.20518 7.67306 6.18733 7.25565C7.14491 6.83824 7.99201 7.01011 8.72862 7.77127L13.5166 12.5224C16.1438 10.0425 19.1455 8.12116 22.5216 6.75844C25.8977 5.39572 29.3904 4.71436 32.9998 4.71436C36.8302 4.71436 40.4887 5.46324 43.9753 6.96101C47.4619 8.45877 50.4697 10.4722 52.9987 13.0012C55.5277 15.5302 57.5411 18.538 59.0389 22.0246C60.5367 25.5112 61.2855 29.1697 61.2855 33.0001Z" fill="white" fill-opacity="0.6"/>
</svg>
