<svg width="32" height="32" viewBox="0 0 32 32" fill="none" xmlns="http://www.w3.org/2000/svg">
<path d="M21.5 25.9998C21.3832 26.0001 21.27 25.9594 21.18 25.8848L15.32 20.9998H11.5C11.1022 20.9998 10.7206 20.8418 10.4393 20.5605C10.158 20.2792 10 19.8977 10 19.4998V12.4998C10 12.102 10.158 11.7205 10.4393 11.4392C10.7206 11.1579 11.1022 10.9998 11.5 10.9998H15.32L21.18 6.11484C21.2531 6.05398 21.342 6.01522 21.4363 6.0031C21.5306 5.99098 21.6264 6.00601 21.7125 6.04643C21.7986 6.08684 21.8713 6.15096 21.9223 6.23127C21.9732 6.31158 22.0002 6.40474 22 6.49984V25.4998C22.0002 25.5955 21.973 25.6892 21.9216 25.7698C21.8702 25.8505 21.7968 25.9147 21.71 25.9548C21.6441 25.9849 21.5724 26.0002 21.5 25.9998ZM11.5 11.9998C11.3674 11.9998 11.2402 12.0525 11.1464 12.1463C11.0527 12.2401 11 12.3672 11 12.4998V19.4998C11 19.6324 11.0527 19.7596 11.1464 19.8534C11.2402 19.9472 11.3674 19.9998 11.5 19.9998H15.5C15.6168 19.9996 15.73 20.0403 15.82 20.1148L21 24.4298V7.56984L15.82 11.8848C15.73 11.9594 15.6168 12.0001 15.5 11.9998H11.5Z" fill="#333333"/>
</svg>
