<svg width="70" height="70" viewBox="0 0 70 70" fill="none" xmlns="http://www.w3.org/2000/svg">
<path d="M35 4.375C28.943 4.375 23.0219 6.17113 17.9857 9.53624C12.9494 12.9014 9.02414 17.6843 6.7062 23.2803C4.38827 28.8763 3.78179 35.034 4.96346 40.9746C6.14514 46.9153 9.06188 52.3722 13.3449 56.6551C17.6279 60.9381 23.0847 63.8549 29.0254 65.0365C34.966 66.2182 41.1237 65.6117 46.7197 63.2938C52.3157 60.9759 57.0987 57.0506 60.4638 52.0143C63.8289 46.9781 65.625 41.0571 65.625 35C65.625 26.8777 62.3985 19.0882 56.6552 13.3449C50.9119 7.60155 43.1223 4.375 35 4.375ZM35 61.25C29.8083 61.25 24.7331 59.7105 20.4163 56.8261C16.0995 53.9417 12.735 49.842 10.7482 45.0454C8.76138 40.2489 8.24154 34.9709 9.2544 29.8789C10.2673 24.7869 12.7673 20.1096 16.4385 16.4384C20.1096 12.7673 24.7869 10.2672 29.8789 9.25439C34.9709 8.24152 40.2489 8.76136 45.0455 10.7482C49.842 12.735 53.9417 16.0995 56.8261 20.4163C59.7105 24.7331 61.25 29.8082 61.25 35C61.25 41.9619 58.4844 48.6387 53.5616 53.5616C48.6387 58.4844 41.9619 61.25 35 61.25Z" fill="white"/>
<path d="M35 17.5C31.5388 17.5 28.1554 18.5264 25.2775 20.4493C22.3997 22.3722 20.1566 25.1053 18.8321 28.303C17.5076 31.5007 17.161 35.0194 17.8363 38.4141C18.5115 41.8087 20.1782 44.927 22.6256 47.3744C25.0731 49.8218 28.1913 51.4885 31.5859 52.1637C34.9806 52.839 38.4993 52.4924 41.697 51.1679C44.8947 49.8434 47.6278 47.6003 49.5507 44.7225C51.4736 41.8446 52.5 38.4612 52.5 35C52.5 30.3587 50.6563 25.9075 47.3744 22.6256C44.0925 19.3437 39.6413 17.5 35 17.5ZM35 48.125C32.4041 48.125 29.8665 47.3552 27.7081 45.913C25.5498 44.4708 23.8675 42.421 22.8741 40.0227C21.8807 37.6244 21.6208 34.9854 22.1272 32.4394C22.6336 29.8934 23.8837 27.5548 25.7192 25.7192C27.5548 23.8837 29.8934 22.6336 32.4394 22.1272C34.9854 21.6208 37.6244 21.8807 40.0227 22.8741C42.421 23.8675 44.4709 25.5497 45.913 27.7081C47.3552 29.8665 48.125 32.4041 48.125 35C48.125 38.481 46.7422 41.8194 44.2808 44.2808C41.8194 46.7422 38.481 48.125 35 48.125Z" fill="white"/>
</svg>
