<svg width="70" height="70" viewBox="0 0 70 70" fill="none" xmlns="http://www.w3.org/2000/svg">
<path d="M35 4.375C28.943 4.375 23.0219 6.17113 17.9857 9.53624C12.9494 12.9014 9.02414 17.6843 6.7062 23.2803C4.38827 28.8763 3.78179 35.034 4.96346 40.9746C6.14514 46.9153 9.06188 52.3722 13.3449 56.6551C17.6279 60.9381 23.0847 63.8549 29.0254 65.0365C34.966 66.2182 41.1237 65.6117 46.7197 63.2938C52.3157 60.9759 57.0987 57.0506 60.4638 52.0143C63.8289 46.9781 65.625 41.0571 65.625 35C65.625 26.8777 62.3985 19.0882 56.6552 13.3449C50.9119 7.60155 43.1223 4.375 35 4.375ZM35 61.25C29.8083 61.25 24.7331 59.7105 20.4163 56.8261C16.0995 53.9417 12.735 49.842 10.7482 45.0454C8.76138 40.2489 8.24154 34.9709 9.2544 29.8789C10.2673 24.7869 12.7673 20.1096 16.4385 16.4384C20.1096 12.7673 24.7869 10.2672 29.8789 9.25439C34.9709 8.24152 40.2489 8.76136 45.0455 10.7482C49.842 12.735 53.9417 16.0995 56.8261 20.4163C59.7105 24.7331 61.25 29.8082 61.25 35C61.25 41.9619 58.4844 48.6387 53.5616 53.5616C48.6387 58.4844 41.9619 61.25 35 61.25Z" fill="#CF3D3D"/>
<path d="M45 20H25C22.25 20 20 22.25 20 25V45C20 47.75 22.25 50 25 50H45C47.75 50 50 47.75 50 45V25C50 22.25 47.75 20 45 20Z" fill="#CF3D3D"/>
</svg>
