<svg width="32" height="32" viewBox="0 0 32 32" fill="none" xmlns="http://www.w3.org/2000/svg">
<path d="M27.3137 8.3125H23.8687C23.7333 8.3125 23.6115 8.23002 23.5611 8.10428L22.8551 6.33911C22.5298 5.52563 21.7533 5 20.8772 5H11.6228C10.7466 5 9.97023 5.52563 9.64488 6.33911L8.93878 8.10428C8.8885 8.23002 8.76666 8.3125 8.63125 8.3125H5.18625C3.98076 8.3125 3 9.29326 3 10.4987V25.2062C3 26.4117 3.98076 27.3925 5.18625 27.3925H27.3137C28.5192 27.3925 29.5 26.4117 29.5 25.2062V10.4987C29.5 9.29326 28.5192 8.3125 27.3137 8.3125ZM8.59561 15.7245C8.51379 15.5609 8.5801 15.362 8.74374 15.2801L10.6176 14.3432C10.7452 14.2796 10.8991 14.3045 10.9999 14.4053L12.4052 15.8107C12.5346 15.9401 12.5346 16.1498 12.4052 16.2792C12.3405 16.3439 12.2558 16.3762 12.171 16.3762C12.0862 16.3762 12.0015 16.3439 11.9367 16.2792L10.7002 15.0426L9.03988 15.8727C8.87637 15.9545 8.67736 15.8882 8.59561 15.7245ZM18.8663 23.8331C18.0031 24.2454 17.078 24.4457 16.16 24.4458C14.5235 24.4458 12.9088 23.8095 11.7026 22.6032C9.81971 20.7204 9.32548 17.8416 10.4728 15.4396C10.5516 15.2745 10.7493 15.2047 10.9145 15.2835C11.0796 15.3624 11.1495 15.5601 11.0706 15.7252C10.044 17.8742 10.4863 20.45 12.1711 22.1348C13.8558 23.8195 16.4317 24.2618 18.5807 23.2352C18.746 23.1564 18.9435 23.2264 19.0224 23.3913C19.1013 23.5566 19.0313 23.7542 18.8663 23.8331ZM23.5622 20.0888L21.6884 21.0258C21.6413 21.0493 21.5906 21.0608 21.5403 21.0608C21.4678 21.0608 21.397 21.0357 21.3382 20.9901C21.334 20.9869 21.3302 20.9835 21.3261 20.9802C21.3194 20.9746 21.3122 20.97 21.306 20.9638L19.9006 19.5584C19.7713 19.4291 19.7713 19.2193 19.9006 19.09C20.0299 18.9606 20.2398 18.9606 20.369 19.09L21.4217 20.1426C22.1963 18.0899 21.7065 15.7428 20.1348 14.1712C18.4501 12.4864 15.8744 12.0442 13.7252 13.0707C13.5601 13.1495 13.3624 13.0797 13.2835 12.9146C13.2047 12.7495 13.2746 12.5518 13.4396 12.4729C15.8416 11.3256 18.7204 11.8199 20.6032 13.7027C22.2777 15.3771 22.8527 17.8391 22.1529 20.0529L23.2659 19.4965C23.4296 19.4146 23.6285 19.4811 23.7103 19.6446C23.7922 19.8081 23.7258 20.007 23.5622 20.0888Z" fill="white"/>
</svg>
