<svg width="39" height="39" viewBox="0 0 39 39" fill="none" xmlns="http://www.w3.org/2000/svg">
<circle cx="19.5" cy="19.5" r="19.5" fill="#69C9D1"/>
<circle cx="19.5" cy="19.5" r="19.5" stroke="#E4E4E4"/>
<path d="M19.5014 31H19.5005C13.1594 31 8.00046 25.8412 8 19.5001C8 13.1588 13.1587 8 19.5 8C25.8413 8 31 13.159 31 19.5001C31 25.841 25.8418 31 19.5014 31ZM19.5 8.91741C13.6648 8.91741 8.91763 13.6646 8.91763 19.4999C8.91809 25.3352 13.6655 30.0824 19.5005 30.0824H19.5014C25.3359 30.0824 30.0824 25.3352 30.0824 19.4999C30.0824 13.6646 25.3352 8.91741 19.5 8.91741Z" fill="white"/>
<path d="M16.5 14H20.8787C21.2765 14 21.658 14.158 21.9393 14.4393V14.4393C22.5251 15.0251 22.5251 15.9749 21.9393 16.5607L21 17.5L17.5 21L16.6894 21.8106C15.8897 22.6103 16.1682 23.9673 17.2183 24.3873V24.3873C17.4044 24.4618 17.603 24.5 17.8034 24.5H22.5" stroke="white" stroke-linecap="round"/>
<path d="M16 18H23.5" stroke="white" stroke-linecap="round"/>
<path d="M15 20H22.5" stroke="white" stroke-linecap="round"/>
</svg>
