<svg width="39" height="39" viewBox="0 0 39 39" fill="none" xmlns="http://www.w3.org/2000/svg">
<circle cx="19.5" cy="19.5" r="19.5" fill="#69C9D1"/>
<path d="M27.9412 12H11.0588C9.90588 12 9 12.8684 9 13.9737V25.0263C9 26.1316 9.90588 27 11.0588 27H27.9412C29.0941 27 30 26.1316 30 25.0263V13.9737C30 12.8684 29.0941 12 27.9412 12ZM29.1765 25.0263C29.1765 25.6974 28.6412 26.2105 27.9412 26.2105H11.0588C10.3588 26.2105 9.82353 25.6974 9.82353 25.0263V13.9737C9.82353 13.3026 10.3588 12.7895 11.0588 12.7895H27.9412C28.6412 12.7895 29.1765 13.3026 29.1765 13.9737V25.0263ZM22.3412 19.1447L17.8118 17.0526C17.6882 17.0132 17.5235 17.0132 17.4 17.0921C17.3176 17.1316 17.2353 17.2895 17.2353 17.4079V21.5921C17.2353 21.7105 17.3176 21.8684 17.4412 21.9079C17.5235 21.9474 17.5647 21.9868 17.6471 21.9868C17.6882 21.9868 17.7706 21.9868 17.8118 21.9474L22.3412 19.8553C22.4647 19.7763 22.5882 19.6579 22.5882 19.5C22.5882 19.3421 22.5059 19.2237 22.3412 19.1447ZM18.0588 20.9605V18.0395L21.2294 19.5L18.0588 20.9605Z" fill="white"/>
</svg>
