<svg width="39" height="39" viewBox="0 0 39 39" fill="none" xmlns="http://www.w3.org/2000/svg">
<circle cx="19.5" cy="19.5" r="19.5" fill="#69C9D1"/>
<circle cx="19.5" cy="19.5" r="19.5" stroke="#E4E4E4"/>
<path d="M27.8125 28.25H11.1875C9.98131 28.25 9 27.2687 9 26.0625V13.8125C9 12.6063 9.98131 11.625 11.1875 11.625H27.8125C29.0187 11.625 30 12.6063 30 13.8125V26.0625C30 27.2687 29.0187 28.25 27.8125 28.25ZM11.1875 12.5C10.4639 12.5 9.875 13.0889 9.875 13.8125V26.0625C9.875 26.7861 10.4639 27.375 11.1875 27.375H27.8125C28.5361 27.375 29.125 26.7861 29.125 26.0625V13.8125C29.125 13.0889 28.5361 12.5 27.8125 12.5H11.1875Z" fill="white"/>
<path d="M29.5625 16.875H9.4375C9.19556 16.875 9 16.679 9 16.4375C9 16.196 9.19556 16 9.4375 16H29.5625C29.8044 16 30 16.196 30 16.4375C30 16.679 29.8044 16.875 29.5625 16.875Z" fill="white"/>
<path d="M12.5 15.125C12.9832 15.125 13.375 14.7332 13.375 14.25C13.375 13.7668 12.9832 13.375 12.5 13.375C12.0168 13.375 11.625 13.7668 11.625 14.25C11.625 14.7332 12.0168 15.125 12.5 15.125Z" fill="white"/>
<path d="M15.125 15.125C15.6082 15.125 16 14.7332 16 14.25C16 13.7668 15.6082 13.375 15.125 13.375C14.6418 13.375 14.25 13.7668 14.25 14.25C14.25 14.7332 14.6418 15.125 15.125 15.125Z" fill="white"/>
<path d="M17.75 15.125C18.2332 15.125 18.625 14.7332 18.625 14.25C18.625 13.7668 18.2332 13.375 17.75 13.375C17.2668 13.375 16.875 13.7668 16.875 14.25C16.875 14.7332 17.2668 15.125 17.75 15.125Z" fill="white"/>
</svg>
