<svg width="39" height="39" viewBox="0 0 39 39" fill="none" xmlns="http://www.w3.org/2000/svg">
<circle cx="19.5" cy="19.5" r="19.5" fill="#69C9D1"/>
<path d="M29.07 19.8803C28.9787 22.216 28.0516 24.3369 26.5788 25.9521C25.7608 25.189 24.8197 24.5563 23.788 24.0877C24.0782 22.8114 24.251 21.3869 24.2762 19.8803H29.07ZM29.07 19.1193H24.2762C24.2468 17.3393 24.0105 15.6736 23.6186 14.2316C24.5538 13.8271 25.416 13.2879 26.1837 12.6403C27.8843 14.2975 28.9707 16.5814 29.07 19.1193ZM25.5833 12.1013C24.9197 12.6474 24.1821 13.106 23.3869 13.4597C22.9218 12.0509 22.2982 10.9067 21.5733 10.1474C23.0714 10.4781 24.4386 11.1591 25.5833 12.1013ZM22.68 13.7404C21.799 14.0507 20.8586 14.2359 19.8805 14.2741V9.96558C21.0233 10.2267 22.0254 11.6504 22.68 13.7404ZM19.8805 15.0741C20.9338 15.0363 21.947 14.8407 22.8976 14.5113C23.2405 15.8628 23.4487 17.4353 23.4756 19.1193H19.8805V15.0741ZM19.8805 19.8803H23.4762C23.4537 21.2818 23.3058 22.6059 23.059 23.7897C22.062 23.4257 20.9938 23.2098 19.881 23.1695V19.8803H19.8805ZM19.8805 23.9697C20.9313 24.0108 21.9383 24.2215 22.8754 24.5743C22.2355 27.0349 21.1439 28.7455 19.8805 29.0341V23.9697ZM21.5729 28.8523C22.4088 27.9771 23.1098 26.5898 23.5885 24.8767C24.4818 25.2992 25.2991 25.8553 26.0148 26.5201C24.7891 27.6581 23.2651 28.479 21.5729 28.8523ZM19.1194 29.0341C17.856 28.7456 16.7644 27.035 16.1245 24.5743C17.0618 24.2215 18.0687 24.0108 19.1194 23.9697V29.0341ZM19.1194 23.1696C18.0062 23.2098 16.9381 23.4258 15.9413 23.7902C15.6945 22.6063 15.5468 21.2818 15.524 19.8803H19.1195L19.1194 23.1696ZM19.1194 19.1193H15.5238C15.5512 17.4357 15.7588 15.8634 16.1021 14.5119C17.0527 14.841 18.0661 15.036 19.1192 15.0741L19.1194 19.1193ZM19.1194 14.274C18.1415 14.2358 17.2015 14.0505 16.3201 13.7403C16.9747 11.6504 17.9766 10.2267 19.1194 9.96558V14.274ZM17.4273 10.1474C16.702 10.9067 16.0784 12.0513 15.6134 13.4597C14.8182 13.106 14.0804 12.6474 13.4172 12.1013C14.5615 11.1591 15.9286 10.4781 17.4273 10.1474ZM12.8159 12.6407C13.5842 13.2881 14.4474 13.8264 15.3819 14.2309C14.9898 15.673 14.7538 17.339 14.7243 19.1192H9.93006C10.0293 16.5817 11.1154 14.2981 12.8159 12.6407ZM9.93006 19.8803H14.7243C14.7493 21.3869 14.9221 22.8112 15.2124 24.0877C14.1807 24.5563 13.2394 25.189 12.4212 25.9521C10.9484 24.337 10.0215 22.216 9.93006 19.8803ZM12.9851 26.5201C13.7008 25.8555 14.518 25.2992 15.4113 24.8767C15.8902 26.5898 16.5911 27.9771 17.427 28.8523C15.7349 28.479 14.2107 27.6581 12.9851 26.5201ZM29.8702 19.8803H29.8779V19.1192H29.8702C29.6743 13.6905 25.3093 9.32536 19.8805 9.12948V9.12207H19.1192V9.12963C13.6907 9.3255 9.32553 13.6907 9.12981 19.1193H9.1221V19.8803H9.12981C9.22197 22.4378 10.2391 24.7593 11.8573 26.52C11.8528 26.5249 11.8481 26.5296 11.8435 26.535H11.871C13.6873 28.5033 16.2553 29.7669 19.1194 29.8705V29.8783H19.4994H19.5H19.5006H19.8805V29.8705C22.7449 29.7675 25.3129 28.5033 27.1288 26.535H27.1565C27.1521 26.5301 27.1474 26.5255 27.1428 26.52C28.7609 24.7592 29.7779 22.4377 29.8702 19.8803Z" fill="white"/>
</svg>
