<svg width="39" height="39" viewBox="0 0 39 39" fill="none" xmlns="http://www.w3.org/2000/svg">
<circle cx="19.5" cy="19.5" r="19.5" fill="#69C9D1"/>
<path d="M23.7262 15.2738L24.0023 15.5499L23.7262 15.2738Z" fill="black" stroke="white"/>
<mask id="path-4-inside-1" fill="white">
<path d="M19.5 9.88086C20.7989 9.88086 22.0585 10.1351 23.244 10.6365C24.3893 11.1209 25.4181 11.8146 26.3018 12.6982C27.1854 13.5819 27.8791 14.6107 28.3636 15.7561C28.8649 16.9415 29.1191 18.2011 29.1191 19.5C29.1191 20.7989 28.8649 22.0585 28.3635 23.244C27.8791 24.3893 27.1854 25.4181 26.3017 26.3018C25.4181 27.1854 24.3893 27.8791 23.2439 28.3636C22.0585 28.8649 20.7989 29.1191 19.5 29.1191C18.2011 29.1191 16.9415 28.8649 15.7561 28.3635C14.6107 27.8791 13.5819 27.1854 12.6982 26.3017C11.8146 25.4181 11.1209 24.3893 10.6365 23.2439C10.1351 22.0585 9.88086 20.7989 9.88086 19.5C9.88086 18.2011 10.1351 16.9415 10.6365 15.7561C11.1209 14.6107 11.8146 13.5819 12.6982 12.6982C13.5819 11.8146 14.6107 11.1209 15.7561 10.6365C16.9415 10.1351 18.2011 9.88086 19.5 9.88086ZM19.5 9.09961C13.756 9.09961 9.09961 13.756 9.09961 19.5C9.09961 25.244 13.756 29.9004 19.5 29.9004C25.244 29.9004 29.9004 25.244 29.9004 19.5C29.9004 13.756 25.244 9.09961 19.5 9.09961Z"/>
</mask>
<path d="M19.5 9.88086C20.7989 9.88086 22.0585 10.1351 23.244 10.6365C24.3893 11.1209 25.4181 11.8146 26.3018 12.6982C27.1854 13.5819 27.8791 14.6107 28.3636 15.7561C28.8649 16.9415 29.1191 18.2011 29.1191 19.5C29.1191 20.7989 28.8649 22.0585 28.3635 23.244C27.8791 24.3893 27.1854 25.4181 26.3017 26.3018C25.4181 27.1854 24.3893 27.8791 23.2439 28.3636C22.0585 28.8649 20.7989 29.1191 19.5 29.1191C18.2011 29.1191 16.9415 28.8649 15.7561 28.3635C14.6107 27.8791 13.5819 27.1854 12.6982 26.3017C11.8146 25.4181 11.1209 24.3893 10.6365 23.2439C10.1351 22.0585 9.88086 20.7989 9.88086 19.5C9.88086 18.2011 10.1351 16.9415 10.6365 15.7561C11.1209 14.6107 11.8146 13.5819 12.6982 12.6982C13.5819 11.8146 14.6107 11.1209 15.7561 10.6365C16.9415 10.1351 18.2011 9.88086 19.5 9.88086ZM19.5 9.09961C13.756 9.09961 9.09961 13.756 9.09961 19.5C9.09961 25.244 13.756 29.9004 19.5 29.9004C25.244 29.9004 29.9004 25.244 29.9004 19.5C29.9004 13.756 25.244 9.09961 19.5 9.09961Z" fill="black"/>
<path d="M23.244 10.6365L23.6335 9.71547L23.6335 9.71546L23.244 10.6365ZM28.3636 15.7561L29.2846 15.3665L29.2846 15.3665L28.3636 15.7561ZM28.3635 23.244L29.2845 23.6336L29.2845 23.6336L28.3635 23.244ZM26.3017 26.3018L25.5946 25.5946L25.5946 25.5947L26.3017 26.3018ZM23.2439 28.3636L23.6335 29.2846L23.6335 29.2846L23.2439 28.3636ZM15.7561 28.3635L16.1456 27.4425L16.1456 27.4425L15.7561 28.3635ZM10.6365 23.2439L9.71547 23.6335L9.71547 23.6335L10.6365 23.2439ZM10.6365 15.7561L11.5575 16.1456L11.5575 16.1456L10.6365 15.7561ZM12.6982 12.6982L11.9912 11.9911L11.9911 11.9912L12.6982 12.6982ZM15.7561 10.6365L16.1456 11.5575L16.1456 11.5575L15.7561 10.6365ZM19.5 10.8809C20.6663 10.8809 21.7934 11.1087 22.8545 11.5575L23.6335 9.71546C22.3237 9.16149 20.9315 8.88086 19.5 8.88086V10.8809ZM22.8544 11.5575C23.8805 11.9915 24.8016 12.6123 25.5947 13.4053L27.0089 11.9911C26.0346 11.0169 24.8981 10.2503 23.6335 9.71547L22.8544 11.5575ZM25.5947 13.4053C26.3877 14.1984 27.0085 15.1195 27.4426 16.1456L29.2846 15.3665C28.7497 14.1019 27.9832 12.9655 27.0089 11.9911L25.5947 13.4053ZM27.4426 16.1456C27.8913 17.2066 28.1191 18.3336 28.1191 19.5H30.1191C30.1191 18.0685 29.8386 16.6763 29.2846 15.3665L27.4426 16.1456ZM28.1191 19.5C28.1191 20.6664 27.8913 21.7934 27.4425 22.8544L29.2845 23.6336C29.8386 22.3237 30.1191 20.9315 30.1191 19.5H28.1191ZM27.4425 22.8544C27.0085 23.8805 26.3877 24.8016 25.5946 25.5946L27.0088 27.0089C27.9831 26.0346 28.7496 24.8981 29.2845 23.6336L27.4425 22.8544ZM25.5946 25.5947C24.8016 26.3877 23.8805 27.0085 22.8544 27.4426L23.6335 29.2846C24.898 28.7497 26.0345 27.9832 27.0088 27.0088L25.5946 25.5947ZM22.8544 27.4426C21.7934 27.8913 20.6664 28.1191 19.5 28.1191V30.1191C20.9315 30.1191 22.3237 29.8386 23.6335 29.2846L22.8544 27.4426ZM19.5 28.1191C18.3336 28.1191 17.2066 27.8913 16.1456 27.4425L15.3665 29.2845C16.6763 29.8386 18.0685 30.1191 19.5 30.1191V28.1191ZM16.1456 27.4425C15.1195 27.0085 14.1984 26.3877 13.4053 25.5946L11.9911 27.0088C12.9655 27.9831 14.1019 28.7496 15.3665 29.2845L16.1456 27.4425ZM13.4053 25.5946C12.6123 24.8016 11.9915 23.8805 11.5575 22.8544L9.71547 23.6335C10.2503 24.898 11.0169 26.0345 11.9911 27.0088L13.4053 25.5946ZM11.5575 22.8544C11.1087 21.7934 10.8809 20.6663 10.8809 19.5H8.88086C8.88086 20.9315 9.16149 22.3237 9.71547 23.6335L11.5575 22.8544ZM10.8809 19.5C10.8809 18.3337 11.1087 17.2066 11.5575 16.1456L9.71547 15.3665C9.16149 16.6763 8.88086 18.0685 8.88086 19.5H10.8809ZM11.5575 16.1456C11.9915 15.1195 12.6123 14.1984 13.4054 13.4053L11.9911 11.9912C11.0169 12.9655 10.2503 14.1019 9.71546 15.3665L11.5575 16.1456ZM13.4053 13.4054C14.1984 12.6123 15.1195 11.9915 16.1456 11.5575L15.3665 9.71546C14.1019 10.2503 12.9655 11.0169 11.9912 11.9911L13.4053 13.4054ZM16.1456 11.5575C17.2066 11.1087 18.3337 10.8809 19.5 10.8809V8.88086C18.0685 8.88086 16.6763 9.16149 15.3665 9.71547L16.1456 11.5575ZM19.5 8.09961C13.2037 8.09961 8.09961 13.2037 8.09961 19.5H10.0996C10.0996 14.3083 14.3083 10.0996 19.5 10.0996V8.09961ZM8.09961 19.5C8.09961 25.7963 13.2037 30.9004 19.5 30.9004V28.9004C14.3083 28.9004 10.0996 24.6917 10.0996 19.5H8.09961ZM19.5 30.9004C25.7963 30.9004 30.9004 25.7963 30.9004 19.5H28.9004C28.9004 24.6917 24.6917 28.9004 19.5 28.9004V30.9004ZM30.9004 19.5C30.9004 13.2037 25.7963 8.09961 19.5 8.09961V10.0996C24.6917 10.0996 28.9004 14.3083 28.9004 19.5H30.9004Z" fill="white" mask="url(#path-4-inside-1)"/>
</svg>
