<svg width="39" height="39" viewBox="0 0 39 39" fill="none" xmlns="http://www.w3.org/2000/svg">
<circle cx="19.5" cy="19.5" r="19" stroke="#E4E4E4"/>
<path d="M20.0525 19.4998L24.0024 15.5499C24.1549 15.3974 24.1549 15.15 24.0024 14.9975C23.8498 14.845 23.6025 14.845 23.4499 14.9975L19.5 18.9474L15.5501 14.9975C15.3976 14.8449 15.1503 14.8449 14.9977 14.9975C14.8451 15.15 14.8451 15.3973 14.9977 15.5499L18.9476 19.4998L14.9977 23.4497C14.8451 23.6023 14.8451 23.8496 14.9977 24.0021C15.0739 24.0784 15.1739 24.1166 15.2739 24.1166C15.3739 24.1166 15.4739 24.0784 15.5501 24.0021L19.5 20.0522L23.4499 24.0021C23.5262 24.0784 23.6261 24.1166 23.7261 24.1166C23.8261 24.1166 23.9261 24.0784 24.0024 24.0021C24.1549 23.8496 24.1549 23.6023 24.0024 23.4497L20.0525 19.4998Z" fill="#333333"/>
<path d="M19.5 9.88086C20.7989 9.88086 22.0585 10.1351 23.244 10.6365C24.3893 11.1209 25.4181 11.8146 26.3018 12.6982C27.1854 13.5819 27.8791 14.6107 28.3636 15.7561C28.8649 16.9415 29.1191 18.2011 29.1191 19.5C29.1191 20.7989 28.8649 22.0585 28.3635 23.244C27.8791 24.3893 27.1854 25.4181 26.3017 26.3018C25.4181 27.1854 24.3893 27.8791 23.2439 28.3636C22.0585 28.8649 20.7989 29.1191 19.5 29.1191C18.2011 29.1191 16.9415 28.8649 15.7561 28.3635C14.6107 27.8791 13.5819 27.1854 12.6982 26.3017C11.8146 25.4181 11.1209 24.3893 10.6365 23.2439C10.1351 22.0585 9.88086 20.7989 9.88086 19.5C9.88086 18.2011 10.1351 16.9415 10.6365 15.7561C11.1209 14.6107 11.8146 13.5819 12.6982 12.6982C13.5819 11.8146 14.6107 11.1209 15.7561 10.6365C16.9415 10.1351 18.2011 9.88086 19.5 9.88086ZM19.5 9.09961C13.756 9.09961 9.09961 13.756 9.09961 19.5C9.09961 25.244 13.756 29.9004 19.5 29.9004C25.244 29.9004 29.9004 25.244 29.9004 19.5C29.9004 13.756 25.244 9.09961 19.5 9.09961Z" fill="#333333"/>
</svg>
