<svg width="37" height="37" viewBox="0 0 37 37" fill="none" xmlns="http://www.w3.org/2000/svg">
<path d="M18.5 4.625C21.2156 4.625 23.8703 5.43028 26.1282 6.939C28.3862 8.44772 30.1461 10.5921 31.1853 13.101C32.2245 15.61 32.4964 18.3707 31.9666 21.0342C31.4369 23.6976 30.1292 26.1441 28.2089 28.0644C26.2887 29.9846 23.8421 31.2923 21.1787 31.8221C18.5152 32.3519 15.7545 32.08 13.2456 31.0408C10.7367 30.0015 8.59226 28.2417 7.08354 25.9837C5.57482 23.7257 4.76954 21.0711 4.76954 18.3555C4.77336 14.7151 6.22119 11.2249 8.79533 8.65079C11.3695 6.07665 14.8596 4.62883 18.5 4.625ZM18.5 2.74609C15.4128 2.74609 12.3949 3.66157 9.8279 5.37675C7.26095 7.09193 5.26026 9.52978 4.07882 12.382C2.89739 15.2343 2.58827 18.3728 3.19056 21.4007C3.79285 24.4286 5.2795 27.21 7.46251 29.393C9.64552 31.576 12.4268 33.0626 15.4548 33.6649C18.4827 34.2672 21.6212 33.9581 24.4735 32.7767C27.3257 31.5952 29.7635 29.5945 31.4787 27.0276C33.1939 24.4606 34.1094 21.4427 34.1094 18.3555C34.1094 14.2156 32.4648 10.2453 29.5375 7.31797C26.6102 4.39065 22.6399 2.74609 18.5 2.74609Z" fill="white"/>
<path d="M25.3161 31.1378C19.6303 10.8774 13.9444 4.83313 13.9444 4.83313" stroke="white" stroke-width="2" stroke-miterlimit="10"/>
<path d="M3.45142 16.3205C3.45142 16.3205 22.4313 18.0346 28.7386 8.42041" stroke="white" stroke-width="2" stroke-miterlimit="10"/>
<path d="M8.59387 28.9062C8.59387 28.9062 15.5921 14.8433 33.4359 19.1735" stroke="white" stroke-width="2" stroke-miterlimit="10"/>
</svg>
