<svg width="37" height="37" viewBox="0 0 37 37" fill="none" xmlns="http://www.w3.org/2000/svg">
<path d="M18.5 4.625C21.2156 4.625 23.8703 5.43028 26.1282 6.939C28.3862 8.44772 30.146 10.5921 31.1853 13.101C32.2245 15.61 32.4964 18.3707 31.9666 21.0342C31.4368 23.6976 30.1291 26.1441 28.2089 28.0644C26.2886 29.9846 23.8421 31.2923 21.1787 31.8221C18.5152 32.3519 15.7545 32.08 13.2456 31.0408C10.7366 30.0015 8.59223 28.2417 7.08351 25.9837C5.57479 23.7257 4.76951 21.0711 4.76951 18.3555C4.77333 14.7151 6.22116 11.2249 8.79529 8.65079C11.3694 6.07665 14.8596 4.62883 18.5 4.625ZM18.5 2.74609C15.4127 2.74609 12.3948 3.66157 9.82787 5.37675C7.26092 7.09193 5.26023 9.52978 4.07879 12.382C2.89736 15.2343 2.58824 18.3728 3.19053 21.4007C3.79282 24.4286 5.27947 27.21 7.46248 29.393C9.64549 31.576 12.4268 33.0626 15.4547 33.6649C18.4827 34.2672 21.6212 33.9581 24.4734 32.7767C27.3257 31.5952 29.7635 29.5945 31.4787 27.0276C33.1939 24.4606 34.1094 21.4427 34.1094 18.3555C34.1094 14.2156 32.4648 10.2453 29.5375 7.31797C26.6101 4.39065 22.6398 2.74609 18.5 2.74609Z" fill="#929292"/>
<path d="M25.3161 31.1378C19.6303 10.8774 13.9444 4.83313 13.9444 4.83313" stroke="#929292" stroke-width="2" stroke-miterlimit="10"/>
<path d="M3.45142 16.3205C3.45142 16.3205 22.4313 18.0346 28.7386 8.42041" stroke="#929292" stroke-width="2" stroke-miterlimit="10"/>
<path d="M8.59384 28.9062C8.59384 28.9062 15.592 14.8433 33.4359 19.1735" stroke="#929292" stroke-width="2" stroke-miterlimit="10"/>
</svg>
