<svg width="49" height="49" viewBox="0 0 49 49" fill="none" xmlns="http://www.w3.org/2000/svg">
<path d="M39.1562 14.5801C38.8869 14.4148 38.552 14.3992 38.2693 14.5392L35.8586 15.7362C35.8699 15.6215 35.8898 15.5035 35.8898 15.3942C35.8898 11.8684 33.0209 9 29.4956 9C25.9703 9 23.1014 11.8684 23.1014 15.3942C23.1014 15.5192 23.1224 15.6522 23.1364 15.783L19.4129 14.4945C19.1803 14.4142 18.9251 14.4309 18.7043 14.5408L11.5056 18.1393C11.196 18.2938 11 18.611 11 18.9578V41.2226C11 41.5301 11.1545 41.8176 11.4125 41.9872C11.6693 42.1563 11.9951 42.1854 12.2767 42.0637L19.2912 39.0505L29.1537 43.027C29.2635 43.0717 29.3798 43.0938 29.4962 43.0938C29.634 43.0938 29.7713 43.0625 29.8978 43.0006L39.2224 38.4468C39.539 38.2928 39.7388 37.9703 39.7366 37.6187L39.5912 15.3538C39.5896 15.0378 39.4248 14.7454 39.1562 14.5801ZM29.4956 10.8308C32.0118 10.8308 34.0591 12.878 34.0591 15.3942C34.0591 17.1281 31.4836 20.5613 29.4956 22.7647C27.5082 20.5613 24.9322 17.1281 24.9322 15.3942C24.9322 12.878 26.9794 10.8308 29.4956 10.8308ZM28.5802 24.4722V40.8209L20.0295 37.3732V33.7935C21.0073 32.7413 23.6275 29.7345 23.6275 27.7062C23.6275 25.5308 22.0805 23.7102 20.0295 23.2859V16.6445L23.8213 17.9573C25.0953 20.627 27.6945 23.5255 28.5802 24.4722ZM19.1141 25.0235C20.5932 25.0235 21.7962 26.227 21.7962 27.7062C21.7962 28.6512 20.3881 30.6187 19.1141 32.0742C17.8395 30.6187 16.4315 28.6512 16.4315 27.7062C16.4309 26.227 17.6344 25.0235 19.1141 25.0235ZM12.8308 19.5232L18.1987 16.8405V23.287C16.1466 23.7113 14.6002 25.5318 14.6002 27.7067C14.6002 29.7351 17.2192 32.7408 18.1987 33.7935V37.5277L12.8308 39.8334V19.5232ZM30.411 40.7116V24.4722C31.2731 23.5508 33.7645 20.781 35.0714 18.1705L37.7702 16.8308L37.9015 37.0538L30.411 40.7116Z" fill="#929292"/>
<path d="M19.1135 28.8424C19.7096 28.8424 20.1959 28.3572 20.1959 27.7606C20.1959 27.164 19.7102 26.6777 19.1135 26.6777C18.5169 26.6777 18.0323 27.1634 18.0323 27.7606C18.0323 28.3572 18.5169 28.8424 19.1135 28.8424Z" fill="#929292"/>
<path d="M32.9617 15.2628C32.9617 13.3518 31.4061 11.7968 29.4951 11.7968C27.5841 11.7968 26.0295 13.3518 26.0295 15.2628C26.0295 17.1738 27.5841 18.7294 29.4951 18.7294C31.4061 18.7294 32.9617 17.1733 32.9617 15.2628ZM27.8614 15.2628C27.8614 14.3614 28.5942 13.6281 29.4956 13.6281C30.397 13.6281 31.1309 14.3614 31.1309 15.2628C31.1309 16.1642 30.397 16.8981 29.4956 16.8981C28.5942 16.8981 27.8614 16.1637 27.8614 15.2628Z" fill="#929292"/>
</svg>
