<svg width="36" height="36" viewBox="0 0 36 36" fill="none" xmlns="http://www.w3.org/2000/svg">
<path d="M30.9375 3.9375H18C17.7021 3.93876 17.4169 4.05811 17.2069 4.26938L2.58187 18.8944C2.37234 19.1052 2.25473 19.3903 2.25473 19.6875C2.25473 19.9847 2.37234 20.2698 2.58187 20.4806L15.5194 33.4181C15.7302 33.6277 16.0153 33.7453 16.3125 33.7453C16.6097 33.7453 16.8948 33.6277 17.1056 33.4181L31.7306 18.7931C31.9419 18.5831 32.0612 18.2979 32.0625 18V5.0625C32.0625 4.76413 31.944 4.47798 31.733 4.267C31.522 4.05603 31.2359 3.9375 30.9375 3.9375ZM29.8125 17.5331L16.3125 31.0331L4.96687 19.6875L18.4669 6.1875H29.8125V17.5331Z" fill="#929292"/>
<path d="M25.5938 12.375C26.6811 12.375 27.5625 11.4936 27.5625 10.4062C27.5625 9.31894 26.6811 8.4375 25.5938 8.4375C24.5064 8.4375 23.625 9.31894 23.625 10.4062C23.625 11.4936 24.5064 12.375 25.5938 12.375Z" fill="#929292"/>
</svg>
