<svg width="32" height="32" viewBox="0 0 32 32" fill="none" xmlns="http://www.w3.org/2000/svg">
<path d="M28.5901 7.34493H25.6107L25.2897 5.13579C25.287 5.11784 25.276 5.10424 25.2719 5.08696C25.2183 4.8601 25.0521 4.6889 24.8341 4.63241C24.7634 4.61341 24.6886 4.60988 24.6133 4.61679C24.6061 4.61739 24.5998 4.61453 24.5926 4.61536L24.5922 4.61543C24.5919 4.61543 24.5917 4.61536 24.5913 4.61536C24.591 4.61543 24.5908 4.61558 24.5905 4.61566L22.8351 4.86679L22.3582 3.3918C22.3415 3.34049 22.3101 3.3 22.2825 3.25659C22.2675 3.23322 22.2594 3.20468 22.2417 3.18379C22.2043 3.1397 22.1566 3.1086 22.1092 3.07697C22.091 3.0648 22.0773 3.0467 22.0579 3.03656C22.0241 3.01898 21.9853 3.01455 21.9486 3.00343C21.909 2.99126 21.8715 2.97308 21.8298 2.96918C21.8071 2.96715 21.7834 2.97594 21.7603 2.97639C21.704 2.97759 21.6476 2.97616 21.5914 2.99397L21.5839 2.99629C21.5836 2.99637 21.5832 2.99629 21.5829 2.99637C21.5826 2.99644 21.5825 2.99674 21.5822 2.99682L9.20335 6.81721L5.51465 7.34493H3.40986C2.20794 7.34493 1.23077 8.37858 1.23077 9.65022V27.0372C1.23077 28.3077 2.20794 29.3413 3.40986 29.3413H28.5901C29.7921 29.3413 30.7692 28.3077 30.7692 27.0372V9.65022C30.7692 8.37858 29.7921 7.34493 28.5901 7.34493ZM24.1592 5.92125L24.3661 7.34493H14.2084L24.1592 5.92125ZM21.374 4.34853L21.5988 5.04369L16.9806 5.70445L21.374 4.34853ZM28.9231 27.0372C28.9231 27.2812 28.768 27.4952 28.5901 27.4952H3.40986C3.23198 27.4952 3.07693 27.2812 3.07693 27.0372V9.65022C3.07693 9.37978 3.25241 9.19108 3.40986 9.19108H28.5901C28.7476 9.19108 28.9231 9.37978 28.9231 9.65022V27.0372Z" fill="#929292"/>
<path d="M24.4892 19.5973C25.1689 19.5973 25.72 19.036 25.72 18.3437C25.72 17.6513 25.1689 17.0901 24.4892 17.0901C23.8095 17.0901 23.2584 17.6513 23.2584 18.3437C23.2584 19.036 23.8095 19.5973 24.4892 19.5973Z" fill="#929292"/>
</svg>
