<svg width="32" height="32" viewBox="0 0 32 32" fill="none" xmlns="http://www.w3.org/2000/svg">
<path d="M28.5901 7.34493H25.6107L25.2896 5.13579C25.287 5.11784 25.2759 5.10424 25.2718 5.08696C25.2182 4.8601 25.052 4.6889 24.834 4.63241C24.7633 4.61341 24.6885 4.60988 24.6132 4.61679C24.6061 4.61739 24.5997 4.61453 24.5925 4.61536L24.5921 4.61543C24.5918 4.61543 24.5916 4.61536 24.5913 4.61536C24.591 4.61543 24.5908 4.61558 24.5905 4.61566L22.8351 4.86679L22.3581 3.3918C22.3414 3.34049 22.31 3.3 22.2824 3.25659C22.2674 3.23322 22.2593 3.20468 22.2416 3.18379C22.2043 3.1397 22.1566 3.1086 22.1092 3.07697C22.091 3.0648 22.0772 3.0467 22.0579 3.03656C22.0241 3.01898 21.9852 3.01455 21.9486 3.00343C21.9089 2.99126 21.8715 2.97308 21.8297 2.96918C21.807 2.96715 21.7834 2.97594 21.7602 2.97639C21.704 2.97759 21.6476 2.97616 21.5913 2.99397L21.5839 2.99629C21.5836 2.99637 21.5832 2.99629 21.5829 2.99637C21.5826 2.99644 21.5824 2.99674 21.5821 2.99682L9.20329 6.81721L5.51459 7.34493H3.4098C2.20788 7.34493 1.23071 8.37858 1.23071 9.65022V27.0372C1.23071 28.3077 2.20788 29.3413 3.4098 29.3413H28.5901C29.792 29.3413 30.7692 28.3077 30.7692 27.0372V9.65022C30.7692 8.37858 29.792 7.34493 28.5901 7.34493ZM24.1591 5.92125L24.3661 7.34493H14.2083L24.1591 5.92125ZM21.374 4.34853L21.5987 5.04369L16.9806 5.70445L21.374 4.34853ZM28.923 27.0372C28.923 27.2812 28.768 27.4952 28.5901 27.4952H3.4098C3.23191 27.4952 3.07687 27.2812 3.07687 27.0372V9.65022C3.07687 9.37978 3.25235 9.19108 3.4098 9.19108H28.5901C28.7475 9.19108 28.923 9.37978 28.923 9.65022V27.0372Z" fill="white"/>
<path d="M24.4891 19.5973C25.1688 19.5973 25.7198 19.036 25.7198 18.3437C25.7198 17.6513 25.1688 17.0901 24.4891 17.0901C23.8093 17.0901 23.2583 17.6513 23.2583 18.3437C23.2583 19.036 23.8093 19.5973 24.4891 19.5973Z" fill="white"/>
</svg>
