<svg width="32" height="32" viewBox="0 0 32 32" fill="none" xmlns="http://www.w3.org/2000/svg">
<path d="M32 6.71429V26.1429C32 26.6429 31.7679 26.994 31.3036 27.1964C31.1488 27.256 31 27.2857 30.8571 27.2857C30.5357 27.2857 30.2679 27.1726 30.0536 26.9464L22.8571 19.75V22.7143C22.8571 24.131 22.3542 25.3423 21.3482 26.3482C20.3423 27.3542 19.131 27.8571 17.7143 27.8571H5.14286C3.72619 27.8571 2.51488 27.3542 1.50893 26.3482C0.502976 25.3423 0 24.131 0 22.7143V10.1429C0 8.72619 0.502976 7.51488 1.50893 6.50893C2.51488 5.50298 3.72619 5 5.14286 5H17.7143C19.131 5 20.3423 5.50298 21.3482 6.50893C22.3542 7.51488 22.8571 8.72619 22.8571 10.1429V13.0893L30.0536 5.91071C30.2679 5.68452 30.5357 5.57143 30.8571 5.57143C31 5.57143 31.1488 5.60119 31.3036 5.66071C31.7679 5.8631 32 6.21429 32 6.71429Z" fill="#69C9D1"/>
<path d="M6.06 16.5H16.94" stroke="white" stroke-width="2" stroke-miterlimit="10"/>
<path d="M11.5 11.0601V21.9401" stroke="white" stroke-width="2" stroke-miterlimit="10"/>
</svg>
