<svg width="32" height="32" viewBox="0 0 32 32" fill="none" xmlns="http://www.w3.org/2000/svg">
<g clip-path="url(#clip0)">
<g filter="url(#filter0_dd)">
<path d="M29 12.6881C29 12.9191 28.8646 13.1712 28.5938 13.4442L22.9219 19.0208L24.2656 26.8973C24.276 26.9708 24.2812 27.0758 24.2812 27.2124C24.2812 27.4329 24.2266 27.6193 24.1172 27.7716C24.0078 27.9239 23.849 28 23.6406 28C23.4427 28 23.2344 27.937 23.0156 27.811L16 24.0933L8.98438 27.811C8.75521 27.937 8.54688 28 8.35938 28C8.14062 28 7.97656 27.9239 7.86719 27.7716C7.75781 27.6193 7.70312 27.4329 7.70312 27.2124C7.70312 27.1493 7.71354 27.0443 7.73438 26.8973L9.07812 19.0208L3.39062 13.4442C3.13021 13.1607 3 12.9086 3 12.6881C3 12.2995 3.29167 12.058 3.875 11.9635L11.7188 10.8135L15.2344 3.64587C15.4323 3.21529 15.6875 3 16 3C16.3125 3 16.5677 3.21529 16.7656 3.64587L20.2812 10.8135L28.125 11.9635C28.7083 12.058 29 12.2995 29 12.6881Z" fill="white"/>
</g>
</g>
<defs>
<filter id="filter0_dd" x="-2" y="-2" width="36" height="35" filterUnits="userSpaceOnUse" color-interpolation-filters="sRGB">
<feFlood flood-opacity="0" result="BackgroundImageFix"/>
<feColorMatrix in="SourceAlpha" type="matrix" values="0 0 0 0 0 0 0 0 0 0 0 0 0 0 0 0 0 0 127 0"/>
<feOffset/>
<feGaussianBlur stdDeviation="2.5"/>
<feColorMatrix type="matrix" values="0 0 0 0 0.411765 0 0 0 0 0.788235 0 0 0 0 0.819608 0 0 0 1 0"/>
<feBlend mode="normal" in2="BackgroundImageFix" result="effect1_dropShadow"/>
<feColorMatrix in="SourceAlpha" type="matrix" values="0 0 0 0 0 0 0 0 0 0 0 0 0 0 0 0 0 0 127 0"/>
<feOffset/>
<feGaussianBlur stdDeviation="2.5"/>
<feColorMatrix type="matrix" values="0 0 0 0 0.411765 0 0 0 0 0.788235 0 0 0 0 0.819608 0 0 0 1 0"/>
<feBlend mode="normal" in2="effect1_dropShadow" result="effect2_dropShadow"/>
<feBlend mode="normal" in="SourceGraphic" in2="effect2_dropShadow" result="shape"/>
</filter>
<clipPath id="clip0">
<rect width="32" height="32" fill="white"/>
</clipPath>
</defs>
</svg>
