<svg width="32" height="32" viewBox="0 0 32 32" fill="none" xmlns="http://www.w3.org/2000/svg">
<path d="M27.7 24.31C27.252 22.3259 26.3038 20.4894 24.9455 18.9753C23.5872 17.4612 21.864 16.3199 19.94 15.66C21.0216 14.8357 21.8175 13.6928 22.2155 12.3924C22.6134 11.092 22.5935 9.69948 22.1585 8.41098C21.7234 7.12249 20.8952 6.00289 19.7904 5.20984C18.6857 4.41679 17.36 3.99023 16 3.99023C14.6401 3.99023 13.3144 4.41679 12.2096 5.20984C11.1048 6.00289 10.2766 7.12249 9.84154 8.41098C9.40651 9.69948 9.38658 11.092 9.78456 12.3924C10.1825 13.6928 10.9784 14.8357 12.06 15.66C10.136 16.3199 8.41282 17.4612 7.05453 18.9753C5.69623 20.4894 4.74798 22.3259 4.30001 24.31C4.19569 24.7514 4.19281 25.2106 4.29156 25.6533C4.39031 26.0959 4.58813 26.5104 4.87015 26.8655C5.15217 27.2207 5.51104 27.5073 5.91978 27.7038C6.32852 27.9003 6.77649 28.0016 7.23001 28H24.77C25.2227 28.0001 25.6695 27.8977 26.077 27.7005C26.4845 27.5034 26.8421 27.2166 27.123 26.8616C27.4039 26.5066 27.6008 26.0927 27.699 25.6508C27.7972 25.2089 27.7941 24.7505 27.69 24.31H27.7Z" fill="#69C9D1"/>
</svg>
